<svg class="svg-inline--fa" width="169.6px" height="16.4px" viewBox="0 0 1696 164" version="1.1" xmlns="http://www.w3.org/2000/svg" xmlns:xlink="http://www.w3.org/1999/xlink">
    <title>Logo Paris La Défense Arena</title>
        <style>
            .logo-ecailles {
                opacity:0;
            }
        </style>
    <defs></defs>
    <g id="logo-parisladefense-arena-horizontal" stroke="none" stroke-width="1" >
        <g id="texte" transform="translate(500.000000, 35.000000)"  class="logo-lettres">
            <path d="M946.61,2.9 L933.81,2.9 L913.36,125.71 L913.29,126.09 L922.1,126.09 L929.1,82.27 L951.43,82.27 L958.82,126.09 L968,126.09 L946.65,3.17 L946.61,2.9 Z M939.61,10.71 L939.61,10.56 L940.34,10.56 L940.34,10.71 C941.34,20.62 944.61,41.94 950.07,74.07 L950.07,74.25 L930.3,74.25 L930.3,74.07 C931.21,68.14 932.18,62.07 933.13,56.07 L933.42,54.22 C936.52,35.31 939.35,17.49 939.65,10.71 L939.61,10.71 Z"></path>
            <path d="M996.43,2.9 L978.33,2.9 L978.33,126.09 L987.07,126.09 L987.07,68.51 L997.07,68.51 C1007.98,68.51 1012.57,71.39 1012.74,89.25 L1012.74,126.09 L1021.38,126.09 L1021.38,89.35 C1021.38,73.73 1018.32,67.26 1009.9,64.63 L1009.44,64.48 L1009.9,64.33 C1018.17,61.6 1022.37,52.85 1022.37,38.33 L1022.37,30.24 C1022.44,11.07 1014.66,2.9 996.43,2.9 Z M1013.53,30.63 L1013.53,38.77 C1013.53,58.15 1006,60.77 997.86,60.77 L987.07,60.77 L987.07,10.59 L996.07,10.59 C1008.31,10.59 1013.53,16.58 1013.53,30.63 Z"></path>
            <polygon points="1032.77 126.09 1071.23 126.09 1071.23 118.08 1041.52 118.08 1041.52 63.95 1069.6 63.95 1069.6 55.93 1041.52 55.93 1041.52 10.94 1071.23 10.94 1071.23 2.9 1032.77 2.9"></polygon>
            <path d="M1121.48,54.25 C1121.48,73.76 1121.77,91.25 1122.4,109.25 L1122.4,109.44 L1121.76,109.44 L1121.76,109.31 C1119.31,97.07 1100.76,30.61 1092.64,3.16 L1092.57,2.93 L1081.57,2.93 L1081.57,126.09 L1090.08,126.09 L1090.08,75.04 C1090.08,54.49 1089.57,32.45 1088.72,16.04 L1088.72,15.87 L1089.2,15.87 L1089.2,16 C1092.12,28.27 1110.53,96 1119.2,125.81 L1119.27,126.05 L1130,126.05 L1130,2.9 L1121.52,2.9 L1121.48,54.25 Z"></path>
            <path d="M1173.65,3.17 L1173.6,2.9 L1160.8,2.9 L1140.35,125.71 L1140.29,126.09 L1149.09,126.09 L1156.09,82.27 L1178.42,82.27 L1185.81,126.09 L1195.01,126.09 L1173.65,3.17 Z M1166.65,10.72 L1166.65,10.56 L1167.38,10.56 L1167.38,10.71 C1168.38,20.64 1171.66,41.96 1177.12,74.07 L1177.12,74.25 L1157.35,74.25 L1157.35,74.07 C1158.35,67.53 1159.42,60.78 1160.46,54.2 L1160.46,54.09 C1163.53,35.26 1166.35,17.44 1166.64,10.72 L1166.65,10.72 Z"></path>
            <path d="M0.7,2.89 L28.1,2.89 C47.67,2.89 57.64,12.56 57.64,34.35 L57.64,41.61 C57.64,61.94 50.38,75.44 27.04,75.44 L19.7,75.44 L19.7,126.09 L0.7,126.09 L0.7,2.89 Z M19.7,59.89 L24.91,59.89 C36.76,59.89 38.79,52.97 38.79,40.95 L38.79,34.92 C38.79,25.92 37.15,18.58 26.6,18.58 L19.7,18.58 L19.7,59.89 Z"></path>
            <path d="M78.2,93.14 L73.89,126.14 L54.56,126.14 L74.4,2.89 L101.25,2.89 L121.85,126.09 L102,126.09 L97.15,93.09 L78.2,93.14 Z M94.91,75.66 C92.09,54.74 89.4,34.88 88,20.95 L87.3,20.95 C86.77,31.1 83.07,57.48 80.61,75.66 L94.91,75.66 Z"></path>
            <path d="M188.33,39.67 L188.33,32.58 C188.33,10.4 177.26,2.9 158.52,2.9 L132.2,2.9 L132.2,126.09 L151.2,126.09 L151.2,73.44 L155.61,73.44 C166.61,73.44 168.56,76.88 168.61,91.83 L168.61,126.13 L187.13,126.13 L187.13,90.33 C187.08,73.87 182.98,68.72 175.84,65.33 C180.56,63.44 188.33,58.6 188.33,39.67 Z M155.56,57.67 L151.2,57.67 L151.2,18.58 L156.57,18.58 C167.34,18.58 169.31,24.38 169.31,33.9 L169.31,40.53 C169.31,53.92 165.61,57.71 155.56,57.71 L155.56,57.67 Z"></path>
            <polygon points="217.68 2.89 217.68 126.09 198.68 126.09 198.68 2.89"></polygon>
            <path d="M247,85.84 L247,97.44 C247,106.61 249.75,111.71 257,111.71 C264.4,111.71 266.32,104.71 266.32,96.71 C266.32,83.46 263.46,79.36 250.25,68.93 C237.04,58.5 229.92,51.77 229.92,33.54 C229.92,17.3 234.84,0.91 257.07,0.93 C279.81,0.93 283.32,17.17 283.32,30.53 L283.32,41.11 L264.49,41.11 L264.49,31.04 C264.49,22.46 263.04,17.27 256.73,17.27 C250.42,17.27 248.92,22.64 248.92,30.8 C248.92,39.51 250.57,43.8 261.41,51.7 C279.84,65.33 285.49,73.24 285.49,93.86 C285.49,111.33 279.37,127.86 256.38,127.86 C233.59,127.86 228.03,113.34 228.03,97.11 L228.03,85.84 L247,85.84 Z"></path>
            <polygon points="315 2.89 334 2.89 334 109.11 356.5 109.11 354.01 126.11 315 126.11"></polygon>
            <path d="M384.2,93.14 L379.88,126.14 L360.56,126.14 L380.4,2.89 L407.25,2.89 L427.85,126.09 L408,126.09 L403.15,93.09 L384.2,93.14 Z M400.91,75.66 C398.09,54.74 395.4,34.88 394,20.95 L393.3,20.95 C392.77,31.1 389.07,57.48 386.61,75.66 L400.91,75.66 Z"></path>
            <path d="M457.25,2.89 L483.6,2.89 C509.74,2.89 516.09,16.44 516.09,39.3 L516.09,86.54 C516.09,105.38 512.86,126.09 483.57,126.09 L457.25,126.09 L457.25,2.89 Z M476.25,109.89 L482.34,109.89 C494.83,109.89 496.74,101.89 496.74,89.1 L496.74,37.8 C496.74,26.47 494.74,19.23 482.22,19.23 L476.22,19.23 L476.25,109.89 Z"></path>
            <polygon points="572.52 69.82 545.44 69.82 545.44 108.62 574 108.62 574 126.09 526.42 126.09 526.42 2.89 574 2.89 574 20.53 545.42 20.53 545.42 52.34 572.5 52.34"></polygon>
            <polygon points="584.37 2.89 632.37 2.89 632.37 20.53 603.37 20.53 603.37 52.94 631 52.94 631 70.58 603.38 70.58 603.38 126.09 584.38 126.09"></polygon>
            <polygon points="688.8 69.82 661.72 69.82 661.72 108.62 690.29 108.62 690.29 126.09 642.71 126.09 642.71 2.89 690.29 2.89 690.29 20.53 661.72 20.53 661.72 52.34 688.8 52.34"></polygon>
            <path d="M700.64,126.09 L700.64,2.89 L722.64,2.89 C727.55,20.28 742.25,81.09 743.56,87.62 L743.76,87.62 C742.89,72.47 742.84,55.13 742.84,34.89 L742.84,2.89 L760.38,2.89 L760.38,126.09 L739.21,126.09 C735.32,111.38 718.92,43.81 717.7,38.63 L717.51,38.63 C718.41,53.55 718.34,70.25 718.34,92.4 L718.34,126.09 L700.64,126.09 Z"></path>
            <path d="M789.74,85.84 L789.74,97.44 C789.74,106.61 792.49,111.71 799.74,111.71 C807.15,111.71 809.07,104.71 809.07,96.71 C809.07,83.46 806.21,79.36 793,68.93 C779.79,58.5 772.66,51.77 772.66,33.54 C772.66,17.3 777.57,0.91 799.81,0.93 C822.55,0.93 826.06,17.17 826.06,30.53 L826.06,41.11 L807.22,41.11 L807.22,31.04 C807.22,22.46 805.78,17.27 799.46,17.27 C793.14,17.27 791.66,22.64 791.66,30.8 C791.66,39.51 793.31,43.8 804.14,51.7 C822.58,65.33 828.23,73.24 828.23,93.86 C828.23,111.33 822.1,127.86 799.12,127.86 C776.33,127.86 770.77,113.34 770.77,97.11 L770.77,85.84 L789.74,85.84 Z"></path>
            <polygon points="882.46 69.82 855.38 69.82 855.38 108.62 884 108.62 884 126.09 836.42 126.09 836.42 2.89 884 2.89 884 20.53 855.42 20.53 855.42 52.34 882.5 52.34"></polygon>
        </g>
        <g id="formes" class="logo-formes">
            <path class="logo-ecailles" d="M0,107.44 C0,77.73 13.72,53.67 30.64,53.67 L30.64,161.17 C13.72,161.17 0,137.1 0,107.44"></path>
            <path class="logo-ecailles" d="M29.66,91.86 C29.66,53.58 55.51,22.55 87.4,22.55 L87.4,161.17 C55.51,161.17 29.66,130.17 29.66,91.86"></path>
            <path class="logo-ecailles" d="M86.42,80.83 C86.42,36.44 124,0.5 170.31,0.5 L170.31,161.17 C123.98,161.17 86.42,125.17 86.42,80.83"></path>
            <path class="logo-ecailles" d="M169.33,87.11 C169.33,46.2 202.92,13.05 244.33,13.05 L244.33,161.17 C202.89,161.17 169.33,128.01 169.33,87.11"></path>
            <path class="logo-ecailles" d="M243.38,96.44 C243.38,60.72 271.58,31.76 306.38,31.76 L306.38,161.17 C271.59,161.17 243.38,132.17 243.38,96.48"></path>
            <path class="logo-ecailles" d="M305.39,107.44 C305.39,77.75 328.77,53.69 357.6,53.69 L357.6,161.19 C328.77,161.19 305.39,137.12 305.39,107.44"></path>
            <path class="logo-ecailles" d="M356.62,112.89 C356.62,86.22 376.29,64.61 400.56,64.61 L400.56,161.17 C376.29,161.17 356.62,139.55 356.62,112.89"></path>
            <path class="logo-ecailles" d="M399.54,117.44 C399.54,93.3 416.63,73.74 437.72,73.74 L437.72,161.15 C416.63,161.15 399.54,141.58 399.54,117.44"></path>
        </g>
    </g>
</svg>