<?xml version="1.0" encoding="UTF-8"?>
<svg width="617px" height="490px" viewBox="0 0 617 490" version="1.1" xmlns="http://www.w3.org/2000/svg" xmlns:xlink="http://www.w3.org/1999/xlink">
    <!-- Generator: Sketch 51.3 (57544) - http://www.bohemiancoding.com/sketch -->
    <title>inline-bkgn-slider-avec-blason-parallax</title>
    <desc>Created with Sketch.</desc>
    <defs>
        <filter x="-20.4%" y="-16.0%" width="140.7%" height="137.4%" filterUnits="objectBoundingBox" id="filter-1">
            <feOffset dx="0" dy="4" in="SourceAlpha" result="shadowOffsetOuter1"></feOffset>
            <feGaussianBlur stdDeviation="8.5" in="shadowOffsetOuter1" result="shadowBlurOuter1"></feGaussianBlur>
            <feColorMatrix values="0 0 0 0 0.402038784   0 0 0 0 0.491742713   0 0 0 0 0.581446641  0 0 0 0.51355865 0" type="matrix" in="shadowBlurOuter1" result="shadowMatrixOuter1"></feColorMatrix>
            <feMerge>
                <feMergeNode in="shadowMatrixOuter1"></feMergeNode>
                <feMergeNode in="SourceGraphic"></feMergeNode>
            </feMerge>
        </filter>
        <linearGradient x1="0%" y1="0%" x2="100%" y2="0%" id="linearGradient-2">
            <stop stop-color="#000000" offset="0%"></stop>
            <stop stop-color="#000000" offset="100%"></stop>
        </linearGradient>
    </defs>
    <g id="Symbols" stroke="none" stroke-width="1" fill="none" fill-rule="evenodd">
        <g id="inline-bkgn-slider-avec-blason-parallax" transform="translate(-1.000000, -1.000000)">
            <g>
                <g id="blason-racing92-ombre" filter="url(#filter-1)" transform="translate(414.000000, 46.000000)">
                    <g id="Shape" transform="translate(0.071882, 0.035941)" fill-rule="nonzero">
                        <g id="path-1-link" fill="#C3E1F7">
                            <path d="M121.891,97.411 C135.575,67.774 133.021,16.175 133.021,16.175 C91.981,16.175 67.001,0.383 67.001,0.383 C67.001,0.383 42.02,16.175 0.98,16.175 C0.98,16.175 -1.574,67.774 12.118,97.411 C21.669,118.088 39.348,135.628 67.003,145.617 C94.657,135.628 112.335,118.087 121.891,97.411 Z" id="path-1"></path>
                        </g>
                    </g>
                    <path d="M4.372882,23.523941 L129.772882,23.523941 L129.772882,38.941941 L4.372882,38.941941 L4.372882,23.523941 Z M6.122882,54.127941 L128.022882,54.127941 L126.28642,69.546941 L7.81687738,69.546941 L6.122882,54.127941 Z M13.178882,92.012941 L16.801882,100.152941 L117.272882,100.152941 L123.272882,84.735941 L10.648882,84.735941 L13.178882,92.012941 Z M35.197882,123.399941 L44.429882,130.759941 L89.686882,130.759941 L99.069882,123.558941 L107.189882,115.337941 L27.409882,115.337941 L35.197882,123.399941 Z" id="Shape" fill="#FFFFFF" fill-rule="nonzero"></path>
                    <path d="M5.342882,20.094941 C5.150882,24.942941 3.737882,69.887941 15.812882,96.016941 C25.451882,116.868941 43.190882,132.472941 67.127882,141.161941 C91.070882,132.472941 108.820882,116.868941 118.448882,96.016941 C130.516882,69.886941 129.103882,24.942941 128.918882,20.094941 C92.851882,19.991941 69.708882,6.830941 67.128882,5.287941 C64.550882,6.830941 41.408882,19.991941 5.342882,20.094941 Z M67.127882,142.114941 L66.977882,142.064941 C42.730882,133.296941 24.757882,117.512941 14.999882,96.394941 C2.201882,68.682941 4.443882,20.113941 4.464882,19.627941 L4.487882,19.195941 L4.910882,19.195941 C43.000882,19.195941 66.656882,4.540941 66.894882,4.389941 L67.127882,4.237941 L67.366882,4.389941 C67.604882,4.539941 91.262882,19.195941 129.341882,19.195941 L129.768882,19.195941 L129.788882,19.627941 C129.813882,20.113941 132.055882,68.682941 119.256882,96.394941 C109.501882,117.512941 91.530882,133.296941 67.283882,142.064941 L67.127882,142.114941 Z" id="Shape" fill="#FFFFFF" fill-rule="nonzero"></path>
                    <path d="M5.371882,20.120941 C5.178882,24.966941 3.765882,69.890941 15.835882,96.008941 C25.469882,116.850941 43.200882,132.448941 67.127882,141.132941 C91.059882,132.447941 108.801882,116.850941 118.425882,96.008941 C130.488882,69.890941 129.075882,24.966941 128.891882,20.120941 C92.839882,20.017941 69.706882,6.862941 67.127882,5.321941 C64.551882,6.862941 41.421882,20.017941 5.371882,20.120941 Z M67.127882,142.085941 L66.977882,142.035941 C42.741882,133.270941 24.775882,117.494941 15.023882,96.385941 C2.229882,68.687941 4.471882,20.138941 4.493882,19.653941 L4.515882,19.221941 L4.937882,19.221941 C43.011882,19.221941 66.656882,4.573941 66.894882,4.422941 L67.127882,4.269941 L67.366882,4.422941 C67.604882,4.573941 91.250882,19.222941 129.313882,19.222941 L129.740882,19.222941 L129.760882,19.653941 C129.786882,20.138941 132.026882,68.687941 119.233882,96.385941 C109.483882,117.494941 91.519882,133.270941 67.283882,142.035941 L67.127882,142.085941 Z M5.371882,20.120941 C5.178882,24.966941 3.765882,69.890941 15.835882,96.008941 C25.469882,116.850941 43.200882,132.448941 67.127882,141.132941 C91.059882,132.447941 108.801882,116.850941 118.425882,96.008941 C130.488882,69.890941 129.075882,24.966941 128.891882,20.120941 C92.839882,20.017941 69.706882,6.862941 67.127882,5.321941 C64.551882,6.862941 41.421882,20.017941 5.371882,20.120941 Z M67.127882,142.085941 L66.977882,142.035941 C42.741882,133.270941 24.775882,117.494941 15.023882,96.385941 C2.229882,68.687941 4.471882,20.138941 4.493882,19.653941 L4.515882,19.221941 L4.937882,19.221941 C43.011882,19.221941 66.656882,4.573941 66.894882,4.422941 L67.127882,4.269941 L67.366882,4.422941 C67.604882,4.573941 91.250882,19.222941 129.313882,19.222941 L129.740882,19.222941 L129.760882,19.653941 C129.786882,20.138941 132.026882,68.687941 119.233882,96.385941 C109.483882,117.494941 91.519882,133.270941 67.283882,142.035941 L67.127882,142.085941 Z" id="Shape" stroke="#FFFFFF" stroke-width="0.5"></path>
                </g>
                <g id="g-full" opacity="0.149" transform="translate(0.902000, 67.914000)" fill="url(#linearGradient-2)" fill-rule="nonzero">
                    <ellipse id="full" cx="215.598" cy="211.966" rx="215.5" ry="211.035"></ellipse>
                </g>
                <g id="g-right-demi" opacity="0.2" transform="translate(79.618000, 11.504000)" fill="url(#linearGradient-2)" fill-rule="nonzero">
                    <path d="M142.272,0.054 C87.9875434,0.0601708302 36.3169425,23.3663831 0.382,64.054 L0.382,322.008 C36.316707,362.695936 87.9874599,386.002217 142.272,386.008 C168.846786,386.036367 195.126426,380.437587 219.382,369.58 L219.382,16.482 C195.126426,5.62441283 168.846786,0.0256328422 142.272,0.054 Z" id="right-demi"></path>
                </g>
                <g id="g-left-demi" opacity="0.102" transform="translate(480.373000, 0.949000)" fill="url(#linearGradient-2)" fill-rule="nonzero">
                    <path d="M137.627,158.527 C137.627,85.235 80.395,22.927 0.627,0.053 L0.627,317.002 C80.4,294.127 137.627,231.818 137.627,158.527 Z" id="left-demi"></path>
                </g>
                <g id="g-pastille" transform="translate(585.518000, 409.009000)" fill="url(#linearGradient-2)" fill-rule="nonzero">
                    <circle id="pastille" cx="14.982" cy="15.405" r="14.497"></circle>
                </g>
            </g>
        </g>
    </g>
</svg>