<svg xmlns="http://www.w3.org/2000/svg" class="bg--slider-ecailles svg-color-context" xmlns:xlink="http://www.w3.org/1999/xlink" width="617" height="489.914" viewBox="0 0 617 489.914">
  <defs>
        <filter x="-20.4%" y="-16.0%" width="140.7%" height="137.4%" filterUnits="objectBoundingBox" id="filter-1">
            <feOffset dx="0" dy="4" in="SourceAlpha" result="shadowOffsetOuter1"></feOffset>
            <feGaussianBlur stdDeviation="8.5" in="shadowOffsetOuter1" result="shadowBlurOuter1"></feGaussianBlur>
            <feColorMatrix values="0 0 0 0 0.402038784   0 0 0 0 0.491742713   0 0 0 0 0.581446641  0 0 0 0.51355865 0" type="matrix" in="shadowBlurOuter1" result="shadowMatrixOuter1"></feColorMatrix>
            <feMerge>
                <feMergeNode in="shadowMatrixOuter1"></feMergeNode>
                <feMergeNode in="SourceGraphic"></feMergeNode>
            </feMerge>
        </filter>
    <linearGradient id="linear-gradient" gradientUnits="objectBoundingBox">
      <stop offset="0" class="start-stop"/>
      <stop offset="1" class="end-stop"/>
    </linearGradient>
  </defs>
  <g id="bkgn-parallax_" data-name="bkgn-parallax " transform="translate(-176 -861.086)">
    <g id="blason-racing92" filter="url(#filter-1)" transform="translate(590.000000, 900.000000)" style="opacity:0">
                <g id="Shape" transform="translate(0.071882, 0.035941)" fill-rule="nonzero">
                    <g id="path-1-link" fill="#C9DFF5">
                        <path d="M67.002,145.617 C94.657,135.628 112.335,118.087 121.891,97.411 C135.575,67.774 133.021,16.175 133.021,16.175 C91.981,16.175 67.001,0.383 67.001,0.383 C67.001,0.383 42.02,16.175 0.98,16.175 C0.98,16.175 -1.574,67.774 12.118,97.411 C21.669,118.088 39.348,135.628 67.003,145.617" id="path-1"></path>
                    </g>
                </g>
                <path d="M4.372882,23.523941 L129.772882,23.523941 L129.772882,38.941941 L4.372882,38.941941 L4.372882,23.523941 Z M6.122882,54.127941 L128.022882,54.127941 L126.28642,69.546941 L7.81687738,69.546941 L6.122882,54.127941 Z M13.178882,92.012941 L16.801882,100.152941 L117.272882,100.152941 L123.272882,84.735941 L10.648882,84.735941 L13.178882,92.012941 Z M35.197882,123.399941 L44.429882,130.759941 L89.686882,130.759941 L99.069882,123.558941 L107.189882,115.337941 L27.409882,115.337941 L35.197882,123.399941 Z" id="Shape" fill="#FFFFFF" fill-rule="nonzero"></path>
                <path d="M5.342882,20.094941 C5.150882,24.942941 3.737882,69.887941 15.812882,96.016941 C25.451882,116.868941 43.190882,132.472941 67.127882,141.161941 C91.070882,132.472941 108.820882,116.868941 118.448882,96.016941 C130.516882,69.886941 129.103882,24.942941 128.918882,20.094941 C92.851882,19.991941 69.708882,6.830941 67.128882,5.287941 C64.550882,6.830941 41.408882,19.991941 5.342882,20.094941 Z M67.127882,142.114941 L66.977882,142.064941 C42.730882,133.296941 24.757882,117.512941 14.999882,96.394941 C2.201882,68.682941 4.443882,20.113941 4.464882,19.627941 L4.487882,19.195941 L4.910882,19.195941 C43.000882,19.195941 66.656882,4.540941 66.894882,4.389941 L67.127882,4.237941 L67.366882,4.389941 C67.604882,4.539941 91.262882,19.195941 129.341882,19.195941 L129.768882,19.195941 L129.788882,19.627941 C129.813882,20.113941 132.055882,68.682941 119.256882,96.394941 C109.501882,117.512941 91.530882,133.296941 67.283882,142.064941 L67.127882,142.114941 Z" id="Shape" fill="#FFFFFF" fill-rule="nonzero"></path>
                <path d="M5.371882,20.120941 C5.178882,24.966941 3.765882,69.890941 15.835882,96.008941 C25.469882,116.850941 43.200882,132.448941 67.127882,141.132941 C91.059882,132.447941 108.801882,116.850941 118.425882,96.008941 C130.488882,69.890941 129.075882,24.966941 128.891882,20.120941 C92.839882,20.017941 69.706882,6.862941 67.127882,5.321941 C64.551882,6.862941 41.421882,20.017941 5.371882,20.120941 Z M67.127882,142.085941 L66.977882,142.035941 C42.741882,133.270941 24.775882,117.494941 15.023882,96.385941 C2.229882,68.687941 4.471882,20.138941 4.493882,19.653941 L4.515882,19.221941 L4.937882,19.221941 C43.011882,19.221941 66.656882,4.573941 66.894882,4.422941 L67.127882,4.269941 L67.366882,4.422941 C67.604882,4.573941 91.250882,19.222941 129.313882,19.222941 L129.740882,19.222941 L129.760882,19.653941 C129.786882,20.138941 132.026882,68.687941 119.233882,96.385941 C109.483882,117.494941 91.519882,133.270941 67.283882,142.035941 L67.127882,142.085941 Z M5.371882,20.120941 C5.178882,24.966941 3.765882,69.890941 15.835882,96.008941 C25.469882,116.850941 43.200882,132.448941 67.127882,141.132941 C91.059882,132.447941 108.801882,116.850941 118.425882,96.008941 C130.488882,69.890941 129.075882,24.966941 128.891882,20.120941 C92.839882,20.017941 69.706882,6.862941 67.127882,5.321941 C64.551882,6.862941 41.421882,20.017941 5.371882,20.120941 Z M67.127882,142.085941 L66.977882,142.035941 C42.741882,133.270941 24.775882,117.494941 15.023882,96.385941 C2.229882,68.687941 4.471882,20.138941 4.493882,19.653941 L4.515882,19.221941 L4.937882,19.221941 C43.011882,19.221941 66.656882,4.573941 66.894882,4.422941 L67.127882,4.269941 L67.366882,4.422941 C67.604882,4.573941 91.250882,19.222941 129.313882,19.222941 L129.740882,19.222941 L129.760882,19.653941 C129.786882,20.138941 132.026882,68.687941 119.233882,96.385941 C109.483882,117.494941 91.519882,133.270941 67.283882,142.035941 L67.127882,142.085941 Z" id="Shape" stroke="#FFFFFF" stroke-width="0.5" fill="#ffffff"></path>
            </g>
    <g id="g-full" transform="translate(-373.098 929)" opacity="0.149">
      <ellipse class="float-animation" id="full" cx="215.5" cy="211.035" rx="215.5" ry="211.035" transform="translate(549.098 -0.069)" fill="url(#linear-gradient)"/>
    </g>
    <g id="g-right-demi" transform="translate(-355.382 1486.59)" opacity="0.2">
      <path class="float-animation" id="right-demi" d="M752.272-614.858a189.335,189.335,0,0,0-141.89,64v257.954a189.332,189.332,0,0,0,141.89,64,188.241,188.241,0,0,0,77.11-16.428V-598.43A188.241,188.241,0,0,0,752.272-614.858Z" transform="translate(0 -0.088)" fill="url(#linear-gradient)"/>
    </g>
    <g id="g-left-demi" transform="translate(-244.627 1928.035)" opacity="0.102">
      <path class="float-animation" id="left-demi" d="M1037.627-908.3c0-73.292-57.232-135.6-137-158.474v316.949C980.4-772.7,1037.627-835.009,1037.627-908.3Z" transform="translate(0 -0.173)" fill="url(#linear-gradient)"/>
    </g>
    <g id="g-pastille" transform="translate(-11.482 1216.095)">
      <circle id="pastille" cx="14.497" cy="14.497" r="14.497" transform="translate(772.485 53.908)" fill="url(#linear-gradient)"/>
    </g>
  </g>
</svg>
