<svg class="svg-inline--fa" width="157px" height="79px" viewBox="0 0 966 485" version="1.1" xmlns="http://www.w3.org/2000/svg" xmlns:xlink="http://www.w3.org/1999/xlink">
    <title>logo Paris la Defense Arena</title>
    <defs></defs>
    <g id="logo-parisladefense-arena-vertical" stroke="none" stroke-width="1" fill="none" fill-rule="evenodd">
        <g id="texte" transform="translate(0.000000, 386.000000)" fill="#000000" fill-rule="nonzero">
            <path d="M764.406324,2 L753.878084,2 L737.057576,97.7038721 L737,98 L744.24639,98 L750.004021,63.8517737 L768.370865,63.8517737 L774.449278,98 L782,98 L764.439225,2.21040669 L764.406324,2 Z M758.648693,8.0862083 L758.648693,7.96931569 L759.249132,7.96931569 L759.249132,8.0862083 C760.071651,15.8089131 762.761287,32.4232486 767.252239,57.4616446 L767.252239,57.6019157 L750.991044,57.6019157 L750.991044,57.4616446 C751.739536,52.8404903 752.537379,48.1102362 753.318772,43.434532 L753.557302,41.9928566 C756.10711,27.2565955 758.434838,13.369754 758.681594,8.0862083 L758.648693,8.0862083 Z"></path>
            <path d="M804.795483,2 L790,2 L790,98 L797.144338,98 L797.144338,53.1288254 L805.318638,53.1288254 C814.2368,53.1288254 817.988803,55.3731634 818.127767,69.2911762 L818.127767,98 L825.190362,98 L825.190362,69.3691046 C825.190362,57.196688 822.689026,52.1547204 815.806265,50.1052033 L815.430248,49.9883107 L815.806265,49.8714181 C822.566411,47.7439727 825.999618,40.9252374 825.999618,29.6100333 L825.999618,23.3056255 C826.056838,8.36675055 819.697232,2 804.795483,2 Z M818.773536,23.6095462 L818.773536,29.9529183 C818.773536,45.0554428 812.618288,47.097167 805.964408,47.097167 L797.144338,47.097167 L797.144338,7.99269421 L804.501208,7.99269421 C814.506552,7.99269421 818.773536,12.6606056 818.773536,23.6095462 Z"></path>
            <polygon points="834 98 865 98 865 91.7579349 841.052782 91.7579349 841.052782 49.5752902 863.686167 49.5752902 863.686167 43.3254323 841.052782 43.3254323 841.052782 8.26544362 865 8.26544362 865 2 834 2"></polygon>
            <path d="M906.138963,42.0162351 C906.138963,57.2200666 906.372496,70.8497443 906.879827,84.8768569 L906.879827,85.0249209 L906.364444,85.0249209 L906.364444,84.9236139 C904.391493,75.3851774 889.453438,23.5939605 882.914516,2.20261385 L882.858146,2.02337852 L874,2.02337852 L874,98 L880.852984,98 L880.852984,58.2175501 C880.852984,42.2032633 880.442288,25.0278432 879.757795,12.2397922 L879.757795,12.1073139 L880.144332,12.1073139 L880.144332,12.2086208 C882.495767,21.7704359 897.321082,74.5513435 904.302911,97.7818005 L904.359281,97.9688286 L913,97.9688286 L913,2 L906.171175,2 L906.138963,42.0162351 Z"></path>
            <path d="M947.434211,2.21040669 L947.393092,2 L936.866776,2 L920.049342,97.7038721 L920,98 L927.236842,98 L932.993421,63.8517737 L951.356908,63.8517737 L957.434211,98 L965,98 L947.434211,2.21040669 Z M941.677632,8.09400114 L941.677632,7.96931569 L942.277961,7.96931569 L942.277961,8.0862083 C943.100329,15.8244987 945.797697,32.4388343 950.287829,57.4616446 L950.287829,57.6019157 L934.029605,57.6019157 L934.029605,57.4616446 C934.851974,52.365127 935.731908,47.1049598 936.587171,41.9772709 L936.587171,41.8915496 C939.111842,27.2176313 941.430921,13.3307898 941.669408,8.09400114 L941.677632,8.09400114 Z"></path>
            <path d="M0,2 L22.1355813,2 C37.9455567,2 46,9.53506494 46,26.5142857 L46,32.1714286 C46,48.012987 40.1348788,58.5324675 21.2792413,58.5324675 L15.3494907,58.5324675 L15.3494907,98 L0,98 L0,2 Z M15.3494907,46.4155844 L19.5584826,46.4155844 C29.1317176,46.4155844 30.7716895,41.0233766 30.7716895,31.6571429 L30.7716895,26.9584416 C30.7716895,19.9454545 29.4467861,14.225974 20.9237794,14.225974 L15.3494907,14.225974 L15.3494907,46.4155844 Z"></path>
            <path d="M62.971021,72.296146 L59.5122604,98 L44,98 L59.9215337,2 L81.4685689,2 L98,97.9610548 L82.0704414,97.9610548 L78.1783326,72.2572008 L62.971021,72.296146 Z M76.3807401,58.6808925 C74.1176995,42.3862069 71.9589835,26.9171602 70.8354882,16.0670183 L70.2737405,16.0670183 C69.8484173,23.9729006 66.8791797,44.5204057 64.9050379,58.6808925 L76.3807401,58.6808925 Z"></path>
            <path d="M152,30.6449728 L152,25.1216425 C152,7.8427331 142.927846,2 127.569927,2 L106,2 L106,97.9688388 L121.570996,97.9688388 L121.570996,56.9528524 L125.185106,56.9528524 C134.199893,56.9528524 135.797969,59.6327193 135.838945,71.279234 L135.838945,98 L151.016569,98 L151.016569,70.1106873 C150.975592,57.2878358 147.615535,53.2758257 141.764119,50.6349103 C145.632282,49.1625416 152,45.3920312 152,30.6449728 Z M125.14413,44.6675323 L121.570996,44.6675323 L121.570996,14.2152073 L125.971851,14.2152073 C134.798147,14.2152073 136.412614,18.7335876 136.412614,26.1499635 L136.412614,31.3149395 C136.412614,41.7461657 133.380367,44.6986935 125.14413,44.6986935 L125.14413,44.6675323 Z"></path>
            <polygon points="175 2 175 98 160 98 160 2"></polygon>
            <path d="M199.186565,66.2261924 L199.186565,75.2736976 C199.186565,82.4259064 201.388096,86.4036889 207.192134,86.4036889 C213.116255,86.4036889 214.653324,80.9439875 214.653324,74.7043287 C214.653324,64.3698939 212.363731,61.1720688 201.788375,53.0371137 C191.213018,44.9021586 185.513053,39.6530457 185.513053,25.4344233 C185.513053,12.767916 189.451793,-0.0155848851 207.248173,1.42617422e-05 C225.452837,1.42617422e-05 228.262792,12.6665215 228.262792,23.0867517 L228.262792,31.3387004 L213.188305,31.3387004 L213.188305,23.4845299 C213.188305,16.7924959 212.027497,12.7445173 206.975983,12.7445173 C201.924469,12.7445173 200.723634,16.9328882 200.723634,23.2973401 C200.723634,30.0907686 202.044553,33.4367856 210.72259,39.5984486 C225.476853,50.2292672 230,56.3987298 230,72.4814503 C230,86.1073051 225.100592,99 206.695788,99 C188.451096,99 184,87.6750194 184,75.0163117 L184,66.2261924 L199.186565,66.2261924 Z"></path>
            <polygon points="253 2 268.566265 2 268.566265 84.7553969 287 84.7553969 284.96 98 253 98"></polygon>
            <path d="M309.971021,72.296146 L306.504235,98 L291,98 L306.921534,2 L328.468569,2 L345,97.9610548 L329.070441,97.9610548 L325.178333,72.2572008 L309.971021,72.296146 Z M323.38074,58.6808925 C321.1177,42.3862069 318.958984,26.9171602 317.835488,16.0670183 L317.273741,16.0670183 C316.848417,23.9729006 313.87918,44.5204057 311.905038,58.6808925 L323.38074,58.6808925 Z"></path>
            <path d="M369,2 L390.495581,2 C411.81985,2 417,12.5584416 417,30.3714286 L417,67.1818182 C417,81.8623377 414.365058,98 390.471108,98 L369,98 L369,2 Z M384.49966,85.3766234 L389.467709,85.3766234 C399.656696,85.3766234 401.21482,79.1428571 401.21482,69.1766234 L401.21482,29.2025974 C401.21482,20.374026 399.583277,14.7324675 389.369816,14.7324675 L384.475187,14.7324675 L384.49966,85.3766234 Z"></path>
            <polygon points="461.786885 54.1532468 439.590164 54.1532468 439.590164 84.387013 463 84.387013 463 98 424 98 424 2 463 2 463 15.7454545 439.57377 15.7454545 439.57377 40.5324675 461.770492 40.5324675"></polygon>
            <polygon points="471 2 510 2 510 15.7454545 486.4375 15.7454545 486.4375 41 508.886875 41 508.886875 54.7454545 486.445625 54.7454545 486.445625 98 471.008125 98"></polygon>
            <polygon points="556.778689 54.1532468 534.581967 54.1532468 534.581967 84.387013 558 84.387013 558 98 519 98 519 2 558 2 558 15.7454545 534.581967 15.7454545 534.581967 40.5324675 556.778689 40.5324675"></polygon>
            <path d="M565,98 L565,2 L583.044861,2 C587.072146,15.5506494 599.129394,62.9350649 600.203883,68.0233766 L600.367928,68.0233766 C599.654335,56.2181818 599.613324,42.7064935 599.613324,26.9350649 L599.613324,2 L614,2 L614,98 L596.635922,98 C593.445263,86.5376623 579.993639,33.8857143 578.99297,29.8493506 L578.837128,29.8493506 C579.575326,41.4753247 579.517911,54.4883117 579.517911,71.7480519 L579.517911,98 L565,98 Z"></path>
            <path d="M637.186565,66.2261924 L637.186565,75.2736976 C637.186565,82.4259064 639.388096,86.4036889 645.192134,86.4036889 C651.12426,86.4036889 652.66133,80.9439875 652.66133,74.7043287 C652.66133,64.3698939 650.371737,61.1720688 639.79638,53.0371137 C629.221023,44.9021586 623.513053,39.6530457 623.513053,25.4344233 C623.513053,12.767916 627.443787,-0.0155848851 645.248173,1.42617422e-05 C663.452837,1.42617422e-05 666.262792,12.6665215 666.262792,23.0867517 L666.262792,31.3387004 L651.180299,31.3387004 L651.180299,23.4845299 C651.180299,16.7924959 650.027497,12.7445173 644.967978,12.7445173 C639.908458,12.7445173 638.723634,16.9328882 638.723634,23.2973401 C638.723634,30.0907686 640.044553,33.4367856 648.714584,39.5984486 C663.476853,50.2292672 668,56.3987298 668,72.4814503 C668,86.1073051 663.092586,99 644.695788,99 C626.451096,99 622,87.6750194 622,75.0163117 L622,66.2261924 L637.186565,66.2261924 Z"></path>
            <polygon points="712.737705 54.1532468 690.540984 54.1532468 690.540984 84.387013 714 84.387013 714 98 675 98 675 2 714 2 714 15.7454545 690.57377 15.7454545 690.57377 40.5324675 712.770492 40.5324675"></polygon>
        </g>
        <g id="formes" class="logo-formes" transform="translate(1.000000, 0.000000)" fill="#16FF26" fill-rule="nonzero">
            <path d="M0,236.044279 C0,170.267721 30.4490862,117 68,117 L68,355 C30.4490862,355 0,301.71014 0,236.044279"></path>
            <path d="M66,202 C66,117.497908 123.305161,49 194,49 L194,355 C123.305161,355 66,286.568316 66,202"></path>
            <path d="M190,177.488953 C190,79.4093484 272.874002,0 375,0 L375,355 C272.829896,355 190,275.458082 190,177.488953"></path>
            <path d="M372,189 C372,98.9604375 445.898,26 537,26 L537,352 C445.832,352 372,279.017553 372,189"></path>
            <path d="M535,209.945136 C535,131.554903 597.219048,68 674,68 L674,352 C597.241111,352 535,288.357314 535,210.032919"></path>
            <path d="M672,236 C672,170.267721 723.497797,117 787,117 L787,355 C723.497797,355 672,301.71014 672,236"></path>
            <path d="M787,248 C787,188.892916 830.422622,141 884,141 L884,355 C830.422622,355 787,307.084921 787,248"></path>
            <path d="M881,256.989017 C881,203.964421 918.59979,161 965,161 L965,353 C918.59979,353 881,310.013614 881,256.989017"></path>
        </g>
    </g>
</svg>