<svg width="100" height="100" viewBox="0 0 100 100" xmlns="http://www.w3.org/2000/svg"><g fill="none" fill-rule="evenodd"><path d="M50 0c27.614 0 50 22.386 50 50s-22.386 50-50 50S0 77.614 0 50 22.386 0 50 0z"/><path d="M50 5C37.98 5 26.68 9.68 18.18 18.18S5 37.98 5 50s4.68 23.32 13.18 31.82S37.98 95 50 95s23.32-4.68 31.82-13.18S95 62.02 95 50s-4.68-23.32-13.18-31.82S62.02 5 50 5zm0-5c27.614 0 50 22.386 50 50s-22.386 50-50 50S0 77.614 0 50 22.386 0 50 0z" fill="#1D0851" fill-rule="nonzero"/></g></svg>