<svg width="57" height="57" xmlns="http://www.w3.org/2000/svg"><path d="M28.485 57c15.74.008 28.507-12.745 28.515-28.485C57.008 12.775 44.255.008 28.515 0 12.775-.008.008 12.745 0 28.485.098 44.181 12.789 56.886 28.485 57zm0-5.086a23.429 23.429 0 1123.429-23.429 23.316 23.316 0 01-23.429 23.429zm-12.758-9.289h25.546a1.647 1.647 0 001.7-1.852c0-3.057-4.615-11.053-14.493-11.053s-14.492 8-14.492 11.053a1.668 1.668 0 001.739 1.852zm20.25-21.741a7.477 7.477 0 11-14.954 0 7.477 7.477 0 0114.954 0z" fill="#000" fill-rule="nonzero"/></svg>