<svg width="512" height="215" xmlns="http://www.w3.org/2000/svg"><g fill="#000" fill-rule="nonzero"><path d="M138.377 121.082v-95.19C138.35 11.604 127.031.028 113.061 0H62.223c-13.975.028-25.294 11.604-25.32 25.892v95.19c-14.01 0-25.371 11.616-25.371 25.944 0 14.331 11.361 25.947 25.37 25.947h101.475c14.013 0 25.37-11.616 25.37-25.947 0-14.328-11.357-25.944-25.37-25.944zm-33.825-77.838H70.727V25.947h33.825v17.297zM477.407 121.082v-95.19C477.38 11.604 466.057.028 452.087 0h-50.84c-13.97.028-25.29 11.604-25.321 25.892v95.19c-14.01 0-25.367 11.616-25.367 25.944 0 14.331 11.357 25.947 25.367 25.947h101.481c14.01 0 25.368-11.616 25.368-25.947 0-14.328-11.358-25.944-25.368-25.944zm-33.825-77.838h-33.826V25.947h33.826v17.297zM304.431 121.082v-95.19C304.404 11.604 293.085.028 279.115 0h-50.842c-13.97.028-25.29 11.604-25.317 25.892v95.19c-14.013 0-25.37 11.616-25.37 25.944 0 14.331 11.357 25.947 25.37 25.947h101.475c14.013 0 25.37-11.616 25.37-25.947 0-14.328-11.357-25.944-25.37-25.944zm-33.825-77.838h-33.825V25.947h33.825v17.297zM0 198.342h512v16.144H0z"/></g></svg>