<?xml version="1.0" encoding="UTF-8"?>
<svg width="28px" height="36px" viewBox="0 0 28 36" version="1.1" xmlns="http://www.w3.org/2000/svg" xmlns:xlink="http://www.w3.org/1999/xlink">
    <!-- Generator: Sketch 51.3 (57544) - http://www.bohemiancoding.com/sketch -->
    <title>icon-club-enfant</title>
    <desc>Created with Sketch.</desc>
    <defs></defs>
    <g id="Symbols" stroke="none" stroke-width="1" fill="none" fill-rule="evenodd">
        <g id="icon-club-enfant" fill="#000000" fill-rule="nonzero">
            <path d="M13.336,34.999 C7.63023681,34.764871 2.64528495,31.0720352 0.759,25.682 C0.436204359,24.7816783 0.218102616,23.8471962 0.109,22.897 C0.0305365744,22.2128981 -0.00486650246,21.524542 0.003,20.836 C0.0506469723,19.6159981 0.290600682,18.4111672 0.714,17.266 C1.29929472,15.6548132 2.06375607,14.1144856 2.993,12.674 C4.13842298,10.8812356 5.40820678,9.17103735 6.793,7.556 C8.129,5.973 9.534,4.456 10.98,2.97 C11.925,2.001 12.88,1.037 13.825,0.07 C13.856,0.039 13.888,0.011 13.902,-0.002 C14.102,0.184 14.302,0.359 14.483,0.546 C15.475,1.556 16.4643333,2.56833333 17.451,3.583 C19.157,5.344 20.843,7.126 22.397,9.026 C23.6652413,10.539142 24.7932215,12.1645047 25.767,13.882 C26.540972,15.2464613 27.1247134,16.7103569 27.502,18.233 C27.6639943,18.8891697 27.7670703,19.5584944 27.81,20.233 C27.83,20.57 27.862,20.908 27.856,21.245 C27.7591997,28.8706192 21.5542293,35.0038637 13.928,35.012 C13.728,35.012 13.528,35.006 13.336,34.999 Z M4.078,26.099 C5.70260927,29.865005 9.33379329,32.3737948 13.431,32.561 C18.8072181,32.8173778 23.5344404,29.0338 24.462,23.732 C20.9560963,22.8596189 18.1174199,20.2940799 16.896,16.894 C14.9196125,22.4104209 8.89212579,25.3308044 3.338,23.463 C3.46340238,24.3735369 3.71236173,25.2627255 4.078,26.106 L4.078,26.099 Z M12.078,29.554 C12.0068321,29.4595747 12.0068321,29.3294253 12.078,29.235 C12.1362329,29.1466256 12.2470744,29.109129 12.347,29.144 C12.4254219,29.1752933 12.4919299,29.2306001 12.537,29.302 C12.8218572,29.788538 13.3417566,30.0892446 13.9055334,30.0935514 C14.4693103,30.0978582 14.993743,29.8051293 15.286,29.323 C15.3339383,29.2459673 15.4034975,29.1847552 15.486,29.147 C15.5889179,29.105099 15.7070119,29.1446053 15.764,29.24 C15.82633,29.3342976 15.82633,29.4567024 15.764,29.551 C15.5078278,30.0140689 15.0813414,30.3591319 14.575,30.513 C14.3865065,30.5639008 14.1951741,30.6036365 14.002,30.632 C13.2158291,30.6437678 12.483574,30.2335676 12.083,29.557 L12.078,29.554 Z M8.914,27.209 C8.51985782,27.1080559 8.25059508,26.7444468 8.269,26.338 C8.269,26.238 8.269,26.138 8.269,26.038 C8.2622895,25.9154251 8.2622895,25.7925749 8.269,25.67 C8.2780131,25.2878226 8.56401911,24.9691424 8.943,24.919 C9.17124469,24.8779847 9.40466402,24.8746067 9.634,24.909 C9.94696763,24.9557784 10.1950032,25.1973715 10.25,25.509 C10.3325972,25.8650551 10.3380526,26.2346622 10.266,26.593 C10.1760089,26.9978258 9.80374964,27.2761704 9.39,27.248 L9.271,27.248 C9.15272619,27.2484315 9.03473784,27.2363646 8.919,27.212 L8.914,27.209 Z M18.556,27.209 C18.1486062,27.1154238 17.870167,26.7389367 17.9,26.322 C17.9,26.229 17.9,26.138 17.9,26.045 L17.892,26.045 C17.901,25.9 17.903,25.755 17.92,25.612 C17.950299,25.2770994 18.1923325,24.9995676 18.52,24.924 C18.7661658,24.8531582 19.0262812,24.8459328 19.276,24.903 C19.6612857,24.9875505 19.9338414,25.3315894 19.928,25.726 C19.9493962,25.9709481 19.9477221,26.2173652 19.923,26.462 C19.9194334,26.8413447 19.6338745,27.1586323 19.257,27.202 C19.0258187,27.244447 18.789091,27.2471525 18.557,27.21 L18.556,27.209 Z"></path>
        </g>
    </g>
</svg>