<svg xmlns="http://www.w3.org/2000/svg" width="41.983" height="41.983" viewBox="0 0 41.983 41.983">
  <g id="Ico_Ticket_2_SVG_" data-name="Ico Ticket 2 (SVG)" transform="translate(-0.345 -0.345)">
    <g id="Groupe_137" data-name="Groupe 137">
      <path id="Tracé_262" data-name="Tracé 262" d="M39.4,12.2a.838.838,0,0,0-1.105-.065,5.534,5.534,0,0,1-7.757-7.757.838.838,0,0,0-.065-1.105L27.784.589a.833.833,0,0,0-1.179,0L.589,26.605a.833.833,0,0,0,0,1.179L3.276,30.47a.838.838,0,0,0,1.105.065,5.534,5.534,0,0,1,7.757,7.757A.838.838,0,0,0,12.2,39.4l2.686,2.686a.833.833,0,0,0,1.179,0L42.084,16.068a.833.833,0,0,0,0-1.179ZM20.707,14.659l-.6-.6a.833.833,0,0,1,0-1.179l.589-.589a.833.833,0,0,1,1.179,0l.6.6a.833.833,0,0,1,0,1.179l-.589.589A.833.833,0,0,1,20.707,14.659Zm3.55,3.55-.6-.6a.833.833,0,0,1,0-1.179l.589-.589a.833.833,0,0,1,1.179,0l.6.6a.833.833,0,0,1,0,1.179l-.589.589A.833.833,0,0,1,24.258,18.209Zm3.55,3.55-.6-.6a.833.833,0,0,1,0-1.179l.589-.589a.833.833,0,0,1,1.179,0l.6.6a.833.833,0,0,1,0,1.179l-.589.589A.833.833,0,0,1,27.808,21.759Z" fill="#1d0851"/>
    </g>
  </g>
</svg>
