<svg xmlns="http://www.w3.org/2000/svg" width="77.621" height="38.73" viewBox="0 0 77.621 38.73">
  <g id="BT" transform="translate(-5755.689 -1049.635)">
    <g id="Complet" transform="matrix(0.966, -0.259, 0.259, 0.966, 5755.689, 1069.047)">
      <rect id="Rectangle_2373" data-name="Rectangle 2373" width="75" height="20" fill="#ff3c00"/>
      <path id="Complet-2" data-name="Complet" d="M14.855,9.616a4.968,4.968,0,0,1,5.211-5.071,4.89,4.89,0,0,1,5.211,5.071,4.976,4.976,0,0,1-5.211,5.071A4.89,4.89,0,0,1,14.855,9.616Zm2.381,0a2.873,2.873,0,0,0,2.83,2.969A2.719,2.719,0,0,0,22.9,9.616a2.833,2.833,0,1,0-5.659,0ZM6.1,9.616a4.777,4.777,0,0,1,5.126-5.071,4.406,4.406,0,0,1,3,1.023l-.995,1.68a3.5,3.5,0,0,0-2-.6,2.7,2.7,0,0,0-2.745,2.97,2.838,2.838,0,0,0,2.969,2.969,3.6,3.6,0,0,0,2.129-.715l.855,1.681a4.527,4.527,0,0,1-3.194,1.135A4.842,4.842,0,0,1,6.1,9.616Zm58.033,4.9v-7.7H61.2v-2.1h8.124v2.1H66.379v7.7Zm-9.871,0V4.713H60.08v2.1H56.508V8.537H59.66v2.1H56.508v1.778H60.22v2.1Zm-7.629,0V4.713h2.241v7.7h3.992v2.1Zm-8.779,0V4.713c.546,0,2.242-.028,3-.028,2.984,0,3.965,1.555,3.965,3.25a3.353,3.353,0,0,1-3.628,3.291c-.211,0-.743,0-1.093-.041v3.334Zm2.242-7.7V9.056a8.3,8.3,0,0,0,1.022.07A1.167,1.167,0,0,0,42.44,7.921c0-.869-.561-1.134-1.359-1.134C40.786,6.787,40.562,6.8,40.1,6.815Zm-6,7.7V8.271L31.372,12.1H31.05L28.332,8.313v6.206H26.091V4.713h2.255l3.026,4.132L34.23,4.713h2.115v9.806Z" fill="#fff"/>
    </g>
  </g>
</svg>
