<svg width="100px" height="88px" viewBox="0 0 100 88" version="1.1" xmlns="http://www.w3.org/2000/svg" xmlns:xlink="http://www.w3.org/1999/xlink">
    <g id="icon-crazy" stroke="none" stroke-width="1" fill="none" fill-rule="evenodd">
        <g id="crazy" fill="#000000" fill-rule="nonzero">
            <path d="M99.8831321,36.4455487 C99.3519736,32.9446441 96.082525,30.5310305 92.5701402,31.0468595 C92.7275926,30.9462807 92.9128051,30.8977071 93.0994989,30.9080305 C91.9923868,25.4922708 90.1175399,20.2613634 87.53143,15.3728672 C85.4139954,11.4895652 78.806815,1.08325441 68.3372771,0.103629888 C66.2941081,-0.142169567 64.221859,0.0505002907 62.2594554,0.668722675 C54.8876459,3.11485097 50.0842062,12.3792441 49.3587888,24.0017754 L50.0057827,30.7867995 C53.8588157,30.1978156 57.7539528,29.9264092 61.6516732,29.9753341 L60.1420208,36.4279507 L62.9260552,37.210086 L62.9848728,37.2824335 L57.0246864,36.8913659 L56.6325689,42.3135191 L55.5346398,40.954559 L56.0836044,40.8039979 L54.1426226,35.0963652 L42.6927908,38.4008871 L44.0259904,42.9978876 L43.3986024,43.052637 L43.2809671,42.7104528 L39.1637331,40.4852778 L28.6157716,43.8601918 L29.0667067,45.248482 C27.3413896,45.6395497 25.7337078,46.0306174 24.2828729,46.4353724 L22.4595264,41.3925548 L22.6947969,40.954559 L25.1651374,40.1118081 L25.4788314,40.197843 L26.7924251,43.3263844 L34.3995051,40.6710349 L32.3212822,34.4139522 L31.6742883,34.1519368 C37.6160287,32.6181401 43.6555117,31.4892589 49.7509063,30.7731121 L49.2215476,23.976356 C46.4179073,12.6353935 39.810727,4.26458993 31.7527118,3.03663743 C29.6155694,2.74266127 27.4407659,2.88637288 25.3611961,3.45899052 C14.6759935,6.11238468 9.67649504,17.4396598 8.14723668,21.6123519 C6.33049238,26.7923334 5.28676901,32.2104342 5.04950822,37.6930546 C1.89444344,38.4627204 -0.235347067,41.4007384 0.0208471142,44.6300266 C0.277041296,47.8593148 2.84360393,50.4267421 6.08077351,50.6919947 C9.31794309,50.9572472 12.2702625,48.8420351 13.0515124,45.6977548 C13.8327624,42.5534744 12.2123554,39.3081665 9.22555988,38.0352388 C9.77655391,36.8649783 10.3918045,35.7258955 11.0685123,34.6231734 L21.2047503,28.0493258 C22.6913004,28.5761824 23.9006879,29.6807614 24.5573552,31.1113857 L22.7340087,31.6432377 C22.7340087,31.6432377 23.7535143,32.2552586 24.8122316,33.054992 L15.9111637,35.7924657 L15.8131343,36.0388383 C14.9572201,37.7928029 14.2553182,39.6174413 13.7153056,41.492277 L13.7153056,41.5900439 L16.3620989,49.0477045 C15.0092934,49.5815118 14.3034819,49.923696 14.3034819,49.923696 C15.4406227,56.8827453 21.1851445,64.1761574 21.1851445,64.1761574 C28.6354867,61.7251615 36.3243427,60.0650139 44.1240198,59.2232853 L44.2612609,59.6280403 L46.3590897,58.9984214 C57.8770917,57.8624308 69.5005761,58.4463327 80.8458262,60.7308512 C83.1627703,56.2963176 84.6006385,51.4578334 85.0806955,46.4803452 C83.3749842,46.055385 81.6888789,45.6708351 80.0223794,45.3266956 L85.1983307,42.0202184 L87.688277,42.5892218 L88.1784239,40.567402 C89.631837,43.3103318 92.8810687,44.5769362 95.814294,43.5439908 C98.7475193,42.5110454 100.4789,39.4905012 99.8831321,36.4455487 Z M5.402414,37.6187517 L5.46123163,37.6187517 L5.402414,37.6187517 Z M5.77492565,37.5640023 L5.85334915,37.5640023 L5.77492565,37.5640023 Z M6.1474373,37.5268508 L6.24546668,37.5268508 L6.1474373,37.5268508 Z M7.99038967,37.6500371 C7.99038967,37.6500371 7.9707838,37.6500371 7.9707838,37.6500371 C7.9707838,37.6500371 7.99038967,37.6539478 7.99038967,37.6559032 L7.99038967,37.6500371 Z M7.67669565,37.5933323 L7.6374839,37.5933323 L7.67669565,37.5933323 Z M7.36300163,37.5522702 L7.304184,37.5522702 L7.36300163,37.5522702 Z M7.02970173,37.5229401 L6.95127823,37.5229401 L7.02970173,37.5229401 Z M92.2564462,31.1035643 L92.1976286,31.119207 L92.2564462,31.1035643 Z M91.9427522,31.1817778 L91.8839346,31.1974205 L91.9427522,31.1817778 Z M91.6290582,31.2756341 C91.6170907,31.2825568 91.6036585,31.2865757 91.5898464,31.2873661 C91.603194,31.2884032 91.6166032,31.2863973 91.6290582,31.2815001 L91.6290582,31.2756341 Z M91.33497,31.385133 C91.3153642,31.385133 91.3153642,31.385133 91.3153642,31.385133 C91.3153642,31.385133 91.3153642,31.3929544 91.33497,31.390999 L91.33497,31.385133 Z M75.1993338,30.9080305 C75.038742,29.4804811 75.4471452,28.0471723 76.3364746,26.9171849 L72.8858404,26.3794668 C73.0942368,25.6377811 73.4547488,24.9473182 73.9445577,24.3517809 L89.9233469,31.4907213 C90.0409822,31.6862551 90.1390116,31.8407269 90.2174351,31.9639132 C89.0235135,32.7427929 88.1314178,33.9042401 87.688277,35.256703 L76.7678039,32.800798 L75.2777573,39.6190629 L73.9837695,40.3444934 L73.2779579,39.3198961 L74.9052456,32.529006 L64.9062487,30.0359496 C70.8076175,30.2627688 75.1993338,30.9138965 75.1993338,30.9138965 L75.1993338,30.9080305 Z M58.1226155,38.1251844 L63.7887138,38.4947433 L67.6706773,44.4331059 L62.3770907,51.0343282 L66.0433895,51.0343282 L66.1610248,50.2639249 L67.5922538,50.3421385 L69.3175709,50.4340394 L69.0430886,54.4737684 L65.2395486,54.3564481 L59.6126621,54.1804677 L57.2795628,53.9243183 L57.5148333,51.2376834 L60.0439914,47.1979544 L64.3376783,41.8774787 L60.9850734,41.5470265 L61.0438911,42.3682686 L57.8481332,41.9263621 L58.1226155,38.1251844 Z M53.3975993,36.5257176 L54.5739519,40.0120859 L53.4956287,40.3034313 L58.8480329,46.906609 L56.3580866,50.8642138 L56.2796631,51.6971879 L56.142422,53.4765459 L55.4170046,51.0714797 L56.926657,49.380112 L48.4373126,51.8868558 L50.6331707,52.5594922 L51.7310998,56.1866448 L45.045496,58.1850006 L43.9671728,54.5070092 L45.0258901,54.0787901 L45.5944605,48.5432272 L45.5748546,48.5432272 L45.829731,43.6177298 L45.2219489,42.8864333 L44.1436257,39.1986651 L53.3975993,36.5257176 Z M39.0460978,41.746471 L42.3006733,43.5062755 L43.3593906,46.8929216 L42.6731849,48.363336 L44.3396844,49.2139082 L43.927961,53.2771013 L42.5555497,53.8324174 L42.5359438,53.8324174 L42.6927908,54.3329841 L43.2809671,56.401732 L42.3987027,56.7145862 L40.4969327,50.7840449 L37.2227513,51.5524929 L38.3206804,54.6106421 L39.1637331,54.4151083 C39.5754565,55.5237851 39.9871799,56.6950328 40.1832386,57.3187857 L34.6739874,59.0668582 L33.8701465,56.7341396 L33.94857,56.7048095 L33.6348759,56.0888779 L34.3798992,55.7818898 L31.6938942,47.0904108 L30.9684768,47.3641581 L30.8900532,47.0317506 L30.7332062,46.4138637 L30.6939945,46.4295064 L30.1058182,44.6110417 L39.0460978,41.746471 Z M16.7934282,36.7486262 L27.1061191,33.5653353 L31.3605943,35.2840777 L32.9094585,39.9573364 L27.4590249,41.8657467 L26.3414899,39.2397272 L25.1259256,38.897543 L21.8713501,40.0101305 L21.1655386,41.3006539 L25.1455315,52.2270846 L26.3218841,52.8527929 L29.8705477,51.7128307 L30.3606946,50.5278956 L29.4784302,48.0426605 L29.8901536,47.9116529 L30.1254241,48.9186521 L30.929265,48.6155747 L32.9290644,55.1190301 L32.0271941,55.5100978 L32.3016763,56.0478158 L25.067108,58.5154528 L20.1656389,56.3000545 L14.911264,41.4609916 C15.0485052,40.9017648 15.9307696,38.7411159 16.7934282,36.7544922 L16.7934282,36.7486262 Z M86.8060126,41.208753 L84.9826661,40.7883552 L75.5914513,46.7892887 L74.3562811,52.1625585 L75.8659336,52.5536261 L74.7680045,57.0411277 L68.0039772,55.5961326 L70.1410177,55.6626141 L70.572347,49.3370945 L68.8666357,49.2451936 C69.0234827,48.3379166 69.3175709,46.5878888 69.5332355,45.4146858 L69.5724473,45.1898219 L65.8473308,39.5193406 L64.4553136,37.3821558 L63.6906844,36.2206848 L61.534038,35.6184406 L62.6907847,30.6890326 L73.4936226,33.3795782 L72.4152994,37.8768564 L70.3762882,37.1455598 L73.6112578,41.8911661 L78.1598211,39.3492262 L76.6501686,38.8564809 L77.6696742,34.2008203 L87.4137948,36.3927546 C87.3094562,37.0861295 87.3227114,37.7920631 87.4530065,38.4810559 L87.4530065,38.5416714 L86.8060126,41.208753 Z M27.9491718,67.2734133 C28.6864922,69.9052284 30.0675508,72.3132585 31.9683764,74.281346 C45.2969382,70.3014241 59.4018823,69.6487607 73.0426874,72.3807572 C74.6177969,70.0371078 75.7352802,67.418053 76.3364746,64.6610813 C48.1236186,57.7782903 27.9491718,67.271458 27.9491718,67.271458 L27.9491718,67.2734133 Z M36.2424575,76.6590375 C41.241956,85.0924119 51.3193764,88 51.3193764,88 C60.7694088,85.0845905 65.2395486,75.8319294 65.2395486,75.8319294 C55.6907026,73.361291 45.6345164,73.6474538 36.2424575,76.6570822 L36.2424575,76.6590375 Z M36.0856105,48.0934993 C36.1421574,48.2532463 36.2629574,48.3822272 36.4189104,48.4493709 C36.4914067,48.4874348 36.5722562,48.5069212 36.6541809,48.5060757 C37.4167615,48.3565844 38.1511064,48.0887054 38.8304332,47.7122084 L39.340186,47.4873444 L39.1441272,46.9926438 C39.2000186,46.5386703 39.0571402,46.0826835 38.7520097,45.7412273 L38.6539803,45.6063089 L37.8501394,45.1898219 L35.5366459,45.9074311 L35.6738871,46.4334171 C35.8111282,47.0004652 36.0463987,47.970313 36.0856105,48.0954547 L36.0856105,48.0934993 Z M50.4175061,43.5590697 L50.0842062,48.1756236 L53.3191758,47.166669 L50.4175061,43.5590697 Z" id="Ico_Crazy_4_SVG_"></path>
        </g>
    </g>
</svg>