<?xml version="1.0" encoding="UTF-8"?>
<svg width="29px" height="33px" viewBox="0 0 29 33" version="1.1" xmlns="http://www.w3.org/2000/svg" xmlns:xlink="http://www.w3.org/1999/xlink">
    <!-- Generator: Sketch 51.3 (57544) - http://www.bohemiancoding.com/sketch -->
    <title>icon-cloche-checked</title>
    <desc>Created with Sketch.</desc>
    <defs>
        <path d="M7.58,4.08 L6.15,2.65 C3.75,4.48 2.17,7.3 2.03,10.5 L4.03,10.5 C4.18,7.85 5.54,5.53 7.58,4.08 L7.58,4.08 Z M19.97,10.5 L21.97,10.5 C21.82,7.3 20.24,4.48 17.85,2.65 L16.43,4.08 C18.45,5.53 19.82,7.85 19.97,10.5 L19.97,10.5 Z M18,11 C18,7.93 16.36,5.36 13.5,4.68 L13.5,4 C13.5,3.17 12.83,2.5 12,2.5 C11.17,2.5 10.5,3.17 10.5,4 L10.5,4.68 C7.63,5.36 6,7.92 6,11 L6,16 L4,18 L4,19 L20,19 L20,18 L18,16 L18,11 L18,11 Z M12,22 C10.89,22 10,21.1 9.99,20 L13.99,20 C13.99,20.28 13.94,20.54 13.84,20.78 C13.58,21.38 13.05,21.82 12.4,21.96 C12.27,21.99 12.14,22 12,22 Z M5,23.0520822 L7.65438747,20.3674221 L13.8470199,26.6306799 L25.3465508,15 L28,17.6837111 L14.7318158,31.1051133 L13.8470199,32 L5,23.0520822 Z" id="path-1"></path>
    </defs>
    <g id="icon-cloche-checked" stroke="none" stroke-width="1" fill="none" fill-rule="evenodd">
        <mask id="mask-2" fill="white">
            <use xlink:href="#path-1"></use>
        </mask>
        <use id="Mask" fill="#000000" xlink:href="#path-1"></use>
    </g>
</svg>