<svg width="56" height="43" xmlns="http://www.w3.org/2000/svg"><path d="M41.25 33.75a25.632 25.632 0 00-13.711 3.75V8.789a25.632 25.632 0 0113.711-3.75 30.345 30.345 0 018.789 1.172v28.828a29.925 29.925 0 00-8.789-1.289zm-13.711-30C24.179 1.25 19.609 0 13.828 0 7.968 0 3.359 1.25 0 3.75v36.68c.004.322.155.624.41.82.24.222.553.347.879.352.1-.004.2-.024.293-.059a.981.981 0 01.293-.059 27.321 27.321 0 0111.953-2.7c5.78 0 10.351 1.25 13.711 3.75a25.633 25.633 0 0113.711-3.75c4.136-.14 8.242.746 11.953 2.578a1.3 1.3 0 00.586.117 1.419 1.419 0 001.289-1.289V3.75C51.797 1.25 47.188 0 41.25 0c-5.783 0-10.353 1.25-13.711 3.75z" fill="#000" fill-rule="nonzero"/></svg>