<svg width="34px" height="42px" viewBox="0 0 34 42" version="1.1" xmlns="http://www.w3.org/2000/svg" xmlns:xlink="http://www.w3.org/1999/xlink">
    <g id="icon-champagne" stroke="none" stroke-width="1" fill="none" fill-rule="evenodd">
        <path d="M25.325,41.308 C25.2174371,40.830068 25.5172369,40.3553104 25.995,40.247 L27.726,39.856 C28.2031515,39.7462756 28.5020737,39.2717533 28.395,38.794 L26.781,31.643 C26.6978713,31.2531107 26.3603852,30.9696058 25.962,30.955 C23.1305724,30.8547636 20.718033,28.8684969 20.076,26.109 C20.069,26.078 20.064,26.044 20.058,26.009 L18.183,9.239 L26.656,7.325 L32.163,23.273 C32.171,23.304 32.182,23.335 32.189,23.367 C32.8176433,26.1374374 31.4829649,28.9806856 28.95,30.267 C28.598827,30.4532988 28.4176144,30.853117 28.509,31.24 L30.126,38.395 C30.1777587,38.6245404 30.3187001,38.8240638 30.5177402,38.949566 C30.7167803,39.0750681 30.9575686,39.1162396 31.187,39.064 L32.915,38.673 C33.3935547,38.5642001 33.8696997,38.8639454 33.9784998,39.3425001 C34.0872998,39.8210547 33.7875546,40.2971998 33.309,40.406 L26.386,41.973 C26.3202425,41.9870386 26.2532368,41.9944093 26.186,41.995 C25.7746136,41.9928021 25.4184713,41.7086329 25.325,41.308 Z M7.612,41.091 L0.691,39.526 C0.212445264,39.4177522 -0.087747811,38.9420547 0.0205,38.4635 C0.128747811,37.9849453 0.604445264,37.6847522 1.083,37.793 L2.813,38.183 C3.29071902,38.2912053 3.76571698,37.9917014 3.874,37.514 L5.489,30.358 C5.58211672,29.971223 5.4003774,29.5706547 5.048,29.386 C2.5158104,28.0990458 1.18202816,25.2559512 1.811,22.486 C1.81762741,22.4547933 1.82631306,22.4240594 1.837,22.394 L7.343,6.445 L15.816,8.36 L13.941,25.129 C13.937,25.1616667 13.9316667,25.195 13.925,25.229 C13.2823829,27.9887976 10.8688884,29.9747658 8.037,30.074 C7.63885746,30.0887019 7.30171244,30.3722664 7.219,30.762 L5.604,37.911 C5.49645146,38.3894817 5.79669294,38.8646776 6.275,38.973 L8.006,39.364 C8.44941657,39.462147 8.74707142,39.879363 8.69559149,40.3305846 C8.64411156,40.7818062 8.26012883,41.121254 7.806,41.117 C7.7406387,41.1146982 7.67566085,41.1059898 7.612,41.091 Z M21.107,5.067 C20.9404739,4.9006312 20.8469073,4.67489226 20.8469073,4.4395 C20.8469073,4.20410774 20.9404739,3.9783688 21.107,3.812 L22.362,2.556 C22.7088348,2.2099936 23.2704936,2.21066518 23.6165,2.5575 C23.9625064,2.90433482 23.9618348,3.4659936 23.615,3.812 L22.362,5.067 C22.1957619,5.23377191 21.969974,5.32750839 21.7345,5.32750839 C21.499026,5.32750839 21.2732381,5.23377191 21.107,5.067 Z M12.97,4.547 L11.717,3.291 C11.385326,2.94253821 11.3918855,2.39320308 11.7317856,2.05276045 C12.0716857,1.71231781 12.6210097,1.70488217 12.97,2.036 L14.225,3.291 C14.5585791,3.63975088 14.5525603,4.19107288 14.2114469,4.5324581 C13.8703335,4.87384331 13.3190165,4.88030125 12.97,4.547 Z M16.78,2.663 L16.78,0.888 C16.7691227,0.564183479 16.9356693,0.260199083 17.2144301,0.0950691226 C17.4931908,-0.070060838 17.8398092,-0.070060838 18.1185699,0.0950691226 C18.3973307,0.260199083 18.5638773,0.564183479 18.553,0.888 L18.553,2.663 C18.5638773,2.98681652 18.3973307,3.29080092 18.1185699,3.45593088 C17.8398092,3.62106084 17.4931908,3.62106084 17.2144301,3.45593088 C16.9356693,3.29080092 16.7691227,2.98681652 16.78,2.663 Z" id="Color_Overlay-path" fill="#1D0851" fill-rule="nonzero"></path>
    </g>
</svg>