<svg width="61px" height="60px" viewBox="0 0 61 60" version="1.1" xmlns="http://www.w3.org/2000/svg" xmlns:xlink="http://www.w3.org/1999/xlink">
    <g id="icon-vip" stroke="none" stroke-width="1" fill="none" fill-rule="evenodd">
        <g id="SVG-Layer" fill="#000000" fill-rule="nonzero">
            <path d="M17.109,0 L43.125,0 L43.125,24.515 C44.5504279,23.6574867 45.7933365,22.528064 46.783,21.191 C46.65,21.052 46.571,20.967 46.49,20.884 C45.4900558,19.910987 45.1952366,18.4213681 45.749165,17.1408191 C46.3030935,15.86027 47.5905693,15.0551062 48.9843919,15.1175674 C50.3782144,15.1800286 51.5885108,16.0971249 52.0256787,17.4220879 C52.4628466,18.7470509 52.0359684,20.2043284 50.953,21.084 C50.6939061,21.2853687 50.5579722,21.606839 50.594,21.933 C50.6,27.4203333 50.6,32.9073333 50.594,38.394 L50.594,39.021 L60,39.021 L60,42.536 L42.883,42.536 L42.894,42.547 C42.894,41.371 42.8913333,40.1943333 42.886,39.017 L47.065,39.017 L47.065,26.017 C46.365,26.506 45.732,26.986 45.065,27.412 C44.398,27.838 43.698,28.205 42.913,28.655 L42.913,24.8 C34.8275596,28.9221272 25.2607504,28.9399584 17.16,24.848 L17.16,28.763 L12.934,26.087 L12.934,39.016 L17.116,39.016 C17.12,40.194 17.1243333,41.3723333 17.129,42.551 C16.875,42.545 16.622,42.536 16.369,42.536 L0.004,42.536 L0.004,39.021 L9.404,39.021 L9.404,38.279 C9.404,32.872 9.398,27.465 9.414,22.058 C9.44518615,21.6366481 9.26072503,21.2281985 8.924,20.973 C7.69742699,19.9023153 7.43231764,18.0982992 8.299,16.72 C9.15287367,15.3357441 10.8762224,14.7626991 12.389,15.36 C13.9178657,15.9307464 14.785851,17.5473048 14.417,19.137 C14.1294332,19.908095 13.7698437,20.6503761 13.343,21.354 C14.3795225,22.7088927 15.6804999,23.8390827 17.167,24.676 L17.167,23.942 C17.167,16.172 17.167,8.40266667 17.167,0.634 C17.162,0.424 17.128,0.212 17.109,0 Z M43.009,60 L16.875,60 C19.5096667,54.3653333 22.143,48.729 24.775,43.091 C24.8883266,42.71875 25.2514217,42.4806135 25.638,42.525 C28.372,42.554 31.107,42.55 33.838,42.525 C34.2040493,42.4795773 34.5523492,42.6951321 34.675,43.043 C36.466,46.704 38.282,50.353 40.084,54.009 C41.066,56 42.034,58 43.008,60 L43.009,60 Z M46.876,60 C46.782,59.768 46.703,59.528 46.592,59.3 C43.9413333,53.9346667 41.2886667,48.5706667 38.634,43.208 C38.54,43.018 38.449,42.826 38.312,42.54 L42.895,42.54 L42.884,42.529 C42.957,42.618 43.024,42.714 43.104,42.796 C48.614,48.4053333 54.1256667,54.013 59.639,59.619 C59.7517844,59.7158502 59.8729243,59.8025221 60.001,59.878 C59.8496496,59.9337611 59.6922146,59.9713575 59.532,59.99 C55.3106667,59.9966667 51.0916667,60 46.875,60 L46.876,60 Z M0,59.882 C0.128862867,59.8079088 0.250700713,59.7222207 0.364,59.626 C5.878,54.0206667 11.39,48.4133333 16.9,42.804 C16.9729986,42.7171099 17.0398284,42.6252189 17.1,42.529 L21.143,42.529 C21.078,42.717 21.043,42.857 20.983,42.985 C18.365,48.591 15.7456667,54.196 13.125,59.8 C13.092,59.869 13.046,59.933 13.006,60 C8.82533333,60 4.64466667,60 0.464,60 C0.305213141,59.979144 0.149459228,59.9395342 2.84217094e-14,59.882 Z M17.1,39.028 C17.121,38.797 17.161,38.567 17.161,38.336 C17.165,35.35 17.165,32.364 17.161,29.378 L17.161,28.741 C25.3831597,32.257265 34.6877841,32.2467824 42.902,28.712 C42.902,28.912 42.902,29.112 42.902,29.312 C42.8873333,32.3373333 42.8726667,35.3623333 42.858,38.387 C42.858,38.6 42.882,38.813 42.895,39.026 C41.003,39.026 39.112,39.041 37.221,39.041 C30.7656667,39.041 24.311,39.041 17.857,39.041 C17.608,39.043 17.354,39.033 17.1,39.028 Z" id="vip"></path>
        </g>
    </g>
</svg>