<svg width="100px" height="95px" viewBox="0 0 100 95" version="1.1" xmlns="http://www.w3.org/2000/svg" xmlns:xlink="http://www.w3.org/1999/xlink">
    <path d="M31.07,94.41 L41.4,80.76 L3.71,88.74 L3.71,53.98 C1.74,53.98 0.14,51.31 0.14,48.02 C0.14,44.72 1.74,42.05 3.71,42.05 L3.71,0.88 L41.56,11.31 L41.56,80.54 L87.89,80.54 L87.9,80.55 L87.9,11.3 L41.55,11.3 L34.5,9.36 L34.5,4.59 L95.06,4.59 L95.06,80.72 L88.05,80.72 L100,94.41 L31.07,94.41 Z M22.05,47.83 C22.05,43.9 20.08,40.71 17.65,40.71 C16.02,40.71 14.62,42.14 13.86,44.25 L12.26,44.25 C10.22,44.25 8.56,45.86 8.56,47.83 C8.56,49.81 10.22,51.41 12.26,51.41 L13.86,51.41 C14.62,53.51 16.02,54.95 17.65,54.95 C20.08,54.95 22.05,51.77 22.05,47.83 Z" id="Layer"></path>
</svg>