<svg height="512" width="512" xmlns="http://www.w3.org/2000/svg"><path d="M374.75 172.129c0 8.284 6.716 15 15 15h39.167c8.284 0 15-6.716 15-15s-6.716-15-15-15H389.75c-8.284 0-15 6.716-15 15zM363.139 113.726c3.285 0 6.593-1.075 9.358-3.286l30.589-24.461c6.47-5.174 7.521-14.613 2.347-21.083s-14.612-7.521-21.083-2.347L353.761 87.01c-6.47 5.174-7.521 14.613-2.347 21.083a14.972 14.972 0 0011.725 5.633zM292.128 67.45c1.524.489 3.069.722 4.588.722 6.343 0 12.236-4.056 14.279-10.419l11.971-37.292c2.532-7.888-1.81-16.334-9.698-18.867-7.886-2.532-16.334 1.811-18.867 9.698L282.43 48.584c-2.532 7.887 1.81 16.334 9.698 18.866zM201.005 57.752c2.043 6.364 7.935 10.419 14.279 10.419 1.519 0 3.064-.232 4.588-.722 7.888-2.532 12.23-10.979 9.698-18.867L217.599 11.29c-2.532-7.888-10.98-12.232-18.867-9.698-7.888 2.532-12.23 10.979-9.698 18.867zM108.914 85.979l30.589 24.461a14.94 14.94 0 009.358 3.286c4.401 0 8.762-1.928 11.725-5.632 5.174-6.47 4.123-15.909-2.347-21.083L127.65 62.549c-6.471-5.174-15.91-4.123-21.083 2.347-5.173 6.469-4.123 15.909 2.347 21.083zM83.083 187.129h39.167c8.284 0 15-6.716 15-15s-6.716-15-15-15H83.083c-8.284 0-15 6.716-15 15s6.716 15 15 15zM502 249.525H10c-5.523 0-10 4.477-10 10 0 29.823 24.177 54 54 54h87.038c-12.449 3.559-23.415 11.458-30.691 22.564l-35.72 54.52H0v120.52h271.596a81.023 81.023 0 0060.379-26.994L440.929 364.15c12.647-14.133 9.46-36.259-6.661-46.249a30.406 30.406 0 00-12.785-4.377H458c29.823 0 54-24.177 54-54 0-5.522-4.477-9.999-10-9.999zm-103.395 70.942l-112.376 94.346a40.513 40.513 0 01-26.047 9.483H215.75c-15.588 0-28.224-12.637-28.224-28.225 0-15.588 12.637-28.225 28.224-28.225h41.882c15.588 0 28.224-12.636 28.224-28.224 0-11.779-7.218-21.868-17.47-26.098h146.578c-5.885.631-11.601 2.949-16.359 6.943z"/></svg>