<svg height="512" viewBox="0 0 60 60" width="512" xmlns="http://www.w3.org/2000/svg"><path d="M59.71 58.29l-2.19-2.19a4 4 0 00-5.18-.43l-2.8 1.95a2 2 0 01-2.75-.36l-.48-.63a2 2 0 01.31-2.85 6 6 0 002.21-4.15c.13-2.27-1.25-3.46-2.36-4.57a3.86 3.86 0 00-.37-4.4L27.37 17.79l-9.58 9.58L40.66 46.1a3.82 3.82 0 004.4.37c.93.93 1.85 1.66 1.77 3.05a4 4 0 01-1.45 2.7 4 4 0 00-.65 5.64l.49.63A4 4 0 0048.37 60c1.52 0 2-.49 5.13-2.7a2 2 0 012.6.22l2.19 2.19a1.004 1.004 0 101.42-1.42zM28 29.24a12 12 0 01-3.41-1.83 2 2 0 012.82-2.82A12 12 0 0129.24 28 1 1 0 0128 29.24zM12.54 12c6.59-6.59 4.79-7.82 5.57-8.7A10.5 10.5 0 003.48 18.27c.92-.85 1.59 1.25 9.06-6.27zM14 13.46c-3.88 3.87-6.65 5.9-8.78 6.41A10.44 10.44 0 0011 22l4 4a1 1 0 001.42 0L26 16.42A1 1 0 0026 15l-4-4a10.47 10.47 0 00-2.23-6c-.45 2.26-2.28 4.93-5.77 8.46zM39.09 18.9A4 4 0 0044 15V6.72l3.24-.81a1 1 0 00.76-1V2a1 1 0 00-1.24-1l-6 1.5a1 1 0 00-.76 1V10a1 1 0 01-.83 1 4.1 4.1 0 00-3.05 5 4 4 0 002.97 2.9zM47.12 28A4 4 0 0055 27v-8.28l3.24-.81a1 1 0 00.76-1V14a1 1 0 00-1.24-1l-6 1.5a1 1 0 00-.76 1V22a1 1 0 01-.83 1 4.1 4.1 0 00-3.05 5zM19.81 35l-14 2.83a1 1 0 00-.82 1V50a1 1 0 01-.83 1 4.1 4.1 0 00-3 5A4 4 0 009 55V43.31a1 1 0 01.82-1l6-1.31A1 1 0 0117 42v4a1 1 0 01-.83 1 4.1 4.1 0 00-3.05 5A4 4 0 0021 51V36a1 1 0 00-1.19-1z"/></svg>