<svg width="29px" height="24px" viewBox="0 0 29 24" version="1.1" xmlns="http://www.w3.org/2000/svg" xmlns:xlink="http://www.w3.org/1999/xlink">
        <path d="M6.785,23.17 C3.506,23.17 1.867,19.832 1.867,17.907 L6.267,17.907 L11.602,20.539 L15.009,17.907 C16.659229,18.8755354 18.5032894,19.4670007 20.409,19.639 C23.688,19.639 24.845,17.907 24.845,17.907 L28.124,17.907 C28.124,17.907 28.124,23.17 23.206,23.17 L6.785,23.17 Z M3.635,16.17 C2.68262784,16.1885663 1.79454568,15.6911055 1.31291925,14.8692823 C0.831292805,14.047459 0.831292805,13.029541 1.31291925,12.2077177 C1.79454568,11.3858945 2.68262784,10.8884337 3.635,10.907 L26.393,10.907 C27.8373244,10.9169098 29.0007578,12.0946624 28.993,13.539 C28.9853277,14.990983 27.808993,16.1655327 26.357,16.171 L3.635,16.17 Z M1.867,9.17 C1.867,4.1 7.75,-0.007 15.013,-0.007 C22.245,-0.007 28.128,4.101 28.128,9.17 L1.867,9.17 Z M20.253,4.806 C20.2525956,5.1572549 20.4639286,5.47412917 20.7883686,5.60873549 C21.1128086,5.74334182 21.4863932,5.669143 21.7347681,5.42076811 C21.983143,5.17239322 22.0573418,4.79880858 21.9227355,4.47436859 C21.7881292,4.1499286 21.4712549,3.93859556 21.12,3.939 C20.8885041,3.93817286 20.666382,4.03038664 20.503537,4.19492402 C20.340692,4.35946139 20.2507796,4.58252502 20.254,4.814 L20.253,4.806 Z M8.006,4.806 C8.00544803,5.2853827 8.39361692,5.67444667 8.87299962,5.67499885 C9.35238231,5.67555103 9.74144646,5.28738231 9.74199885,4.80799961 C9.74255124,4.32861692 9.35438269,3.9395526 8.875,3.939 C8.64306867,3.93763893 8.42032913,4.02958403 8.25689129,4.19415033 C8.09345346,4.35871662 8.00304313,4.58208353 8.006,4.814 L8.006,4.806 Z M14.146,3.041 C14.1455954,3.39216395 14.3568201,3.70897502 14.6811373,3.84364007 C15.0054544,3.97830511 15.3789606,3.90428975 15.6274143,3.65612234 C15.8758679,3.40795493 15.9503138,3.03453432 15.8160227,2.71006216 C15.6817316,2.38559001 15.3651642,2.17400023 15.014,2.174 C14.7821581,2.17263427 14.5595175,2.26461064 14.3962374,2.42920751 C14.2329573,2.59380438 14.1427722,2.81717658 14.146,3.049 L14.146,3.041 Z" id="Color_Overlay-path" fill="#000000"></path>
</svg>