<svg xmlns="http://www.w3.org/2000/svg" viewBox="0 0 101 79"><g fill="#000" fill-rule="nonzero"><path d="M81.061 18.043c-.481-.053-1.006-.535-1.055-1.101-.01-.132-.018-.258-.045-.382-.229-2.22-2.09-3.961-4.367-3.961-2.537 0-4.68 2.021-4.68 4.412 0 2.6 1.924 4.415 4.68 4.415a4.372 4.372 0 002.754-.992 4.6 4.6 0 002.572.92c1.348.049 2.582-.396 3.494-1.271.848-.812 1.137-1.983 1.133-3.07.127-2.649-1.011-5.12-2.682-6.938-1.841-2.001-4.335-3.197-7.07-3.197h-.002c-2.889 0-5.795 1.161-7.619 3.627-1.121 1.514-2.465 3.462-2.465 6.508 0 2.768.545 5.228 2.559 7.266 1.578 1.598 4.591 2.87 7.326 2.87 1.779 0 3.205-.355 4.768-1.189.836-.446 1.234-1.536.704-2.321-.472-.699-1.563-.733-2.455-.513-.972.241-1.616.751-3.013.751-1.766 0-4.053-.888-4.926-1.85-1.291-1.424-1.781-3.1-1.781-5.014 0-1.617.494-2.879 1.767-4.493.819-1.045 3.187-2.426 5.19-2.426 1.771 0 3.485.832 4.724 2.25 1.138 1.308 1.81 2.884 1.726 4.669-.058.534-.491 1.115-1.237 1.03zm-5.428.335c-1.033.107-1.524-.723-1.488-1.365.039-.751.883-1.216 1.488-1.216.541 0 1.084.675 1.084 1.216 0 .541-.219 1.276-1.084 1.365zM43.623 48.119a44.86 44.86 0 01-1.729 6.104l7.189-1.863a5.005 5.005 0 003.707-4.215l.42-3.342a6.542 6.542 0 01-2.613 1.427l-6.974 1.889zM50.609 37.622l-6.477 7.698c-.031.211-.074.409-.108.618l6.05-1.641a4.539 4.539 0 003.29-3.633l.172-1.027.591-3.53a55.1 55.1 0 01-2.109.941c-.459.194-.928.387-1.409.574z M46.075.109v18.188l4-1.586V4.109h46.54v25.809H62.1c-1.43 1.398-3.313 2.732-5.633 4h44.148V.109h-54.54z M61.989 17.897l-.009-.011a5.306 5.306 0 00-.643-.585l-.072-.059a5.409 5.409 0 00-.696-.442c-.099-.052-.2-.094-.302-.14a6.537 6.537 0 00-.389-.163 5.608 5.608 0 00-.467-.147c-.057-.017-.113-.025-.169-.039a5.464 5.464 0 00-1.081-.136c-.067-.003-.137-.003-.206-.003a5.424 5.424 0 00-1.947.378l-5.33 2.115-4 1.587-8.979 3.562a5.394 5.394 0 00-1.604.987l-9.685 8.591-1.205-1.358 9.685-8.59a7.251 7.251 0 012.142-1.319l7.243-2.955V8.275h-5.583c-.693 0-1.379.132-2.022.39l-14.527 7.263a5.457 5.457 0 00-2.838 2.6L.616 44.947v33.938s14.419-2.729 17.111-3.839c5.14-2.117 16.498-5.529 22.09-20.899.049-.14.098-.276.148-.424.586-1.725 1.195-3.93 1.685-6.108.047-.208.089-.413.134-.62.066-.341.139-.676.2-1.025.03-.165.058-.333.086-.5.108-.635.212-1.276.304-1.94l.815-.969.118-.142 6.177-7.341c.122-.047.245-.098.366-.146a55.368 55.368 0 002.416-1.013 48.873 48.873 0 001.957-.915c.146-.072.289-.145.434-.219.48-.246.953-.5 1.416-.763a27.036 27.036 0 003.186-2.104c1.924-1.488 3.418-3.169 4.058-5.047.725-2.13.461-4.338-.741-6.217a5.72 5.72 0 00-.587-.757z"/></g></svg>