<svg xmlns="http://www.w3.org/2000/svg" width="100" height="100" viewBox="0 0 100 100">
  <metadata><?xpacket begin="﻿" id="W5M0MpCehiHzreSzNTczkc9d"?>
<x:xmpmeta xmlns:x="adobe:ns:meta/" x:xmptk="Adobe XMP Core 5.6-c142 79.160924, 2017/07/13-01:06:39        ">
   <rdf:RDF xmlns:rdf="http://www.w3.org/1999/02/22-rdf-syntax-ns#">
      <rdf:Description rdf:about=""/>
   </rdf:RDF>
</x:xmpmeta>
                                                                                                    
                                                                                                    
                                                                                                    
                                                                                                    
                                                                                                    
                                                                                                    
                                                                                                    
                                                                                                    
                                                                                                    
                                                                                                    
                                                                                                    
                                                                                                    
                                                                                                    
                                                                                                    
                                                                                                    
                                                                                                    
                                                                                                    
                                                                                                    
                                                                                                    
                                                                                                    
                           
<?xpacket end="w"?></metadata>
<defs>
    <style>
      .cls-1 {
        fill-rule: evenodd;
      }
    </style>
  </defs>
  <path id="_" data-name="" class="cls-1" d="M1088.38,431.278h-8.67V422.02q6.57,5.51,13.83,5.508V422.02a16.476,16.476,0,0,1-6.39-1.407,14.679,14.679,0,0,1-5.33-3.632l-3.52-3.868a5.706,5.706,0,0,0-4.1-1.875h-0.11a5.814,5.814,0,0,0-5.63,5.625v14.415a7.611,7.611,0,0,0,7.5,7.5h12.66l8.79,8.789,3.63-3.633ZM1066,411.238h-5.04v22.5a12.6,12.6,0,0,0,12.54,12.54h15v-5.04h-15a7.61,7.61,0,0,1-7.5-7.5v-22.5Zm11.02-3.984a4.827,4.827,0,1,0-3.52,1.524A4.842,4.842,0,0,0,1077.02,407.254Z" transform="translate(-1031 -373.125)"/>
</svg>
