<svg xmlns="http://www.w3.org/2000/svg" width="100" height="100" viewBox="0 0 100 100">
  <metadata><?xpacket begin="﻿" id="W5M0MpCehiHzreSzNTczkc9d"?>
<x:xmpmeta xmlns:x="adobe:ns:meta/" x:xmptk="Adobe XMP Core 5.6-c142 79.160924, 2017/07/13-01:06:39        ">
   <rdf:RDF xmlns:rdf="http://www.w3.org/1999/02/22-rdf-syntax-ns#">
      <rdf:Description rdf:about=""/>
   </rdf:RDF>
</x:xmpmeta>
                                                                                                    
                                                                                                    
                                                                                                    
                                                                                                    
                                                                                                    
                                                                                                    
                                                                                                    
                                                                                                    
                                                                                                    
                                                                                                    
                                                                                                    
                                                                                                    
                                                                                                    
                                                                                                    
                                                                                                    
                                                                                                    
                                                                                                    
                                                                                                    
                                                                                                    
                                                                                                    
                           
<?xpacket end="w"?></metadata>
<defs>
    <style>
      .cls-1 {
        fill-rule: evenodd;
      }
    </style>
  </defs>
  <path id="Walking" class="cls-1" d="M285.683,408.885A4.667,4.667,0,1,1,289,407.518,4.517,4.517,0,0,1,285.683,408.885Zm9.275,14.548a3.213,3.213,0,0,1,1.513,1.806,2.928,2.928,0,0,1-.146,2.392,2.962,2.962,0,0,1-1.806,1.562,3.069,3.069,0,0,1-2.392-.195l-2.246-1.074a6.346,6.346,0,0,1-3.124-3.613l-0.489-1.659-1.659,6.736L289,434.27a5.559,5.559,0,0,1,1.465,2.636l2.148,8.69a3.229,3.229,0,0,1-.342,2.392,2.825,2.825,0,0,1-1.9,1.415,3.224,3.224,0,0,1-2.392-.341,2.829,2.829,0,0,1-1.416-1.9l-1.757-7.225a6.237,6.237,0,0,0-1.465-2.636l-5.858-6.444a6.207,6.207,0,0,1-1.464-5.76l1.464-5.858-2.538,1.073a2.664,2.664,0,0,0-1.66,1.465L272.6,423.14a3.219,3.219,0,0,1-1.806,1.513,2.81,2.81,0,0,1-2.344-.146,2.988,2.988,0,0,1-1.513-1.807,3.074,3.074,0,0,1,.195-2.392l0.586-1.366a9.173,9.173,0,0,1,4.882-4.492l1.269-.488q2.635-1.074,3.808-1.464a16.409,16.409,0,0,1,4-.488,10,10,0,0,1,6.151,2.05,11.221,11.221,0,0,1,3.9,5.37l0.879,2.831ZM272.6,437.2l1.952-5.077,0.293,0.488q0.195,0.2,2.441,2.636l1.953,2.148-1.367,3.32a6.281,6.281,0,0,1-1.367,2.05l-5.76,5.858a3.259,3.259,0,0,1-2.246.879,3.166,3.166,0,0,1-3.124-3.124,3.259,3.259,0,0,1,.879-2.246l4.881-4.882A5.663,5.663,0,0,0,272.6,437.2Z" transform="translate(-231.016 -374.5)"/>
</svg>
