<svg xmlns="http://www.w3.org/2000/svg" width="100" height="100" viewBox="0 0 100 100">
  <metadata><?xpacket begin="﻿" id="W5M0MpCehiHzreSzNTczkc9d"?>
<x:xmpmeta xmlns:x="adobe:ns:meta/" x:xmptk="Adobe XMP Core 5.6-c142 79.160924, 2017/07/13-01:06:39        ">
   <rdf:RDF xmlns:rdf="http://www.w3.org/1999/02/22-rdf-syntax-ns#">
      <rdf:Description rdf:about=""/>
   </rdf:RDF>
</x:xmpmeta>
                                                                                                    
                                                                                                    
                                                                                                    
                                                                                                    
                                                                                                    
                                                                                                    
                                                                                                    
                                                                                                    
                                                                                                    
                                                                                                    
                                                                                                    
                                                                                                    
                                                                                                    
                                                                                                    
                                                                                                    
                                                                                                    
                                                                                                    
                                                                                                    
                                                                                                    
                                                                                                    
                           
<?xpacket end="w"?></metadata>
<defs>
    <style>
      .cls-1 {
        fill-rule: evenodd;
      }
    </style>
  </defs>
  <path id="Car_magna_aliqua._Quis_ipsum_suspendisse_ultrices_gravida._R" data-name="Car    magna aliqua. Quis ipsum suspendisse ultrices gravida. R" class="cls-1" d="M504.817,416.7a1.111,1.111,0,0,1,.927.439,1.258,1.258,0,0,1,.244,1.026L505.4,420.5a1.081,1.081,0,0,1-.44.634,1.235,1.235,0,0,1-.732.244h-1.953a5.928,5.928,0,0,1,2.148,4.687v4.686a5.978,5.978,0,0,1-1.562,4.1v5.272a3.166,3.166,0,0,1-3.124,3.124h-3.124a3.168,3.168,0,0,1-3.125-3.124V437H468.5v3.124a3.168,3.168,0,0,1-3.124,3.124h-3.125a3.168,3.168,0,0,1-3.124-3.124v-5.272a5.983,5.983,0,0,1-1.562-4.1v-4.686a5.928,5.928,0,0,1,2.148-4.687h-1.953a1.235,1.235,0,0,1-.732-0.244,1.08,1.08,0,0,1-.439-0.634L456,418.161a1.262,1.262,0,0,1,.244-1.026,1.112,1.112,0,0,1,.927-0.439h5.858l1.66-4.1a10.117,10.117,0,0,1,3.954-4.979,10.933,10.933,0,0,1,6.2-1.855h12.3a10.931,10.931,0,0,1,6.2,1.855A10.117,10.117,0,0,1,497.3,412.6l1.66,4.1h5.858Zm-34.367-1.757L468.5,419.82h24.994l-1.952-4.881a4.44,4.44,0,0,0-1.709-2.1,4.525,4.525,0,0,0-2.587-.829h-12.4a4.676,4.676,0,0,0-2.685.829A4.438,4.438,0,0,0,470.45,414.939Zm-5.077,15.816h0.683a12.958,12.958,0,0,0,2.734-.195,1.367,1.367,0,0,0,1.269-1.367,4.492,4.492,0,0,0-1.66-3.075,4.641,4.641,0,0,0-3.026-1.611A3.125,3.125,0,1,0,465.373,430.755Zm31.243,0a3.125,3.125,0,1,0,0-6.248,4.641,4.641,0,0,0-3.027,1.611,4.492,4.492,0,0,0-1.66,3.075,1.367,1.367,0,0,0,1.269,1.367,12.958,12.958,0,0,0,2.734.195h0.684Z" transform="translate(-431 -374.5)"/>
</svg>
