<svg xmlns="http://www.w3.org/2000/svg" width="100" height="100"><path d="M68.836 43.758a11.945 11.945 0 016.2 1.709 12.8 12.8 0 014.589 4.637 11.694 11.694 0 011.611 6.347 12.577 12.577 0 01-1.806 6.248 12.265 12.265 0 01-4.589 4.442 12.5 12.5 0 01-6.2 1.611 11.691 11.691 0 01-6.151-1.708 13.052 13.052 0 01-4.54-4.589 11.944 11.944 0 01-1.708-6.2 12.142 12.142 0 011.074-5.028 12.966 12.966 0 012.929-4.149l-1.465-2.343-8.4 13.571a2.184 2.184 0 01-1.953 1.074H43.35a12.305 12.305 0 01-4.442 6.736 12.462 12.462 0 01-13.962.928 12.534 12.534 0 01-4.54-4.589 12.3 12.3 0 01-1.66-6.249 12.031 12.031 0 011.709-6.248 12.518 12.518 0 014.589-4.54 12.2 12.2 0 016.2-1.66 11.218 11.218 0 014.2.781l2.929-4.686h-4.784a2.347 2.347 0 01-1.66-4 2.376 2.376 0 011.757-.684h8.494a1.506 1.506 0 011.563 1.563v1.562h11.13l-1.465-2.344h-4.979a1.5 1.5 0 01-1.562-1.562v-1.562a1.5 1.5 0 011.562-1.562h6.249a2.181 2.181 0 011.952 1.074l7.616 12.2a13.338 13.338 0 014.59-.78zm-31.828 7.225l-2.343 3.71h4.2a7.2 7.2 0 00-1.857-3.71zm-5.761 13.083a7.721 7.721 0 004.3-1.269 7.27 7.27 0 002.832-3.417H30.47a2.211 2.211 0 01-2.05-1.221 2.138 2.138 0 01.1-2.392l4.393-7.127a6.835 6.835 0 00-1.66-.195 7.811 7.811 0 00-.006 15.621zm15.915-9.373l7.225-11.716h-12.5l-2.343 3.9a12.142 12.142 0 014.1 7.811h3.515zm21.186 9.373a7.376 7.376 0 005.761-2.148 7.812 7.812 0 00-5.37-13.473 9.951 9.951 0 00-1.953.195l4.394 7.03a1.762 1.762 0 01.146 1.22 1.325 1.325 0 01-.732.927l-1.269.879a1.771 1.771 0 01-1.221.147 1.324 1.324 0 01-.927-.733l-4.394-6.932a7.737 7.737 0 00-1.855 5.37 7.412 7.412 0 002.246 5.175 7.8 7.8 0 005.174 2.343z" fill-rule="evenodd"/></svg>