<svg xmlns="http://www.w3.org/2000/svg" width="100" height="100" viewBox="0 0 100 100">
  <metadata><?xpacket begin="﻿" id="W5M0MpCehiHzreSzNTczkc9d"?>
<x:xmpmeta xmlns:x="adobe:ns:meta/" x:xmptk="Adobe XMP Core 5.6-c142 79.160924, 2017/07/13-01:06:39        ">
   <rdf:RDF xmlns:rdf="http://www.w3.org/1999/02/22-rdf-syntax-ns#">
      <rdf:Description rdf:about=""/>
   </rdf:RDF>
</x:xmpmeta>
                                                                                                    
                                                                                                    
                                                                                                    
                                                                                                    
                                                                                                    
                                                                                                    
                                                                                                    
                                                                                                    
                                                                                                    
                                                                                                    
                                                                                                    
                                                                                                    
                                                                                                    
                                                                                                    
                                                                                                    
                                                                                                    
                                                                                                    
                                                                                                    
                                                                                                    
                                                                                                    
                           
<?xpacket end="w"?></metadata>
<defs>
    <style>
      .cls-1 {
        fill-rule: evenodd;
      }
    </style>
  </defs>
  <path id="_" data-name="" class="cls-1" d="M399.836,418.258a11.689,11.689,0,0,1,6.151,1.709,13.171,13.171,0,0,1,4.54,4.54,11.775,11.775,0,0,1,1.709,6.2,12.563,12.563,0,0,1-1.66,6.3,11.952,11.952,0,0,1-4.589,4.589,12.566,12.566,0,0,1-6.3,1.659,12.033,12.033,0,0,1-6.249-1.708A12.656,12.656,0,0,1,388.9,437a11.955,11.955,0,0,1-1.659-6.151,12.341,12.341,0,0,1,1.171-5.321,12.567,12.567,0,0,1,3.222-4.247l-1.269-2.05a14.55,14.55,0,0,0-4.149,5.467,15.479,15.479,0,0,0-1.319,6.737,2.028,2.028,0,0,1-.634,1.708,2.344,2.344,0,0,1-1.709.733h-8.2a12.305,12.305,0,0,1-4.442,6.736,12.1,12.1,0,0,1-7.665,2.636,12.378,12.378,0,0,1-6.346-1.708,12.424,12.424,0,0,1-6.151-11.082,12.56,12.56,0,0,1,1.709-6,12.35,12.35,0,0,1,4.345-4.442,12.64,12.64,0,0,1,9.958-1.27l1.172-1.952a5.2,5.2,0,0,0-4.687-2.441H356.78a2.348,2.348,0,0,1-1.66-4,2.379,2.379,0,0,1,1.757-.684h5.37a15.613,15.613,0,0,1,6.249,1.074,9.819,9.819,0,0,1,3.515,2.832h15.035l-1.952-3.125H378.65a1.5,1.5,0,0,1-1.562-1.562v-1.562a1.5,1.5,0,0,1,1.562-1.562h7.811a2.226,2.226,0,0,1,2.05,1.172l2.148,3.71,3.71-4.1a2.227,2.227,0,0,1,1.757-.781h4.394a2.332,2.332,0,0,1,2.343,2.343v3.125a2.334,2.334,0,0,1-2.343,2.343h-8.006l3.222,5.37A12.31,12.31,0,0,1,399.836,418.258Zm-37.589,20.308a7.721,7.721,0,0,0,4.3-1.269,7.27,7.27,0,0,0,2.832-3.417h-7.909a2.226,2.226,0,0,1-2.05-1.172,2.177,2.177,0,0,1,0-2.343l4-7.323a7.129,7.129,0,0,0-1.172-.1A7.811,7.811,0,0,0,362.247,438.566Zm37.882,0a7.877,7.877,0,0,0,7.421-7.42,7.376,7.376,0,0,0-2.148-5.761,7.565,7.565,0,0,0-5.663-2.44,6.421,6.421,0,0,0-1.562.195l4.784,7.908a1.465,1.465,0,0,1,.146,1.123,1.326,1.326,0,0,1-.732.928l-1.367.878a1.469,1.469,0,0,1-1.123.147,1.324,1.324,0,0,1-.927-0.733l-4.882-8.006a7.788,7.788,0,0,0,.293,11.033A7.373,7.373,0,0,0,400.129,438.566Z" transform="translate(-331 -374.5)"/>
</svg>
