<svg xmlns="http://www.w3.org/2000/svg" width="100" height="100" viewBox="0 0 100 100">
  <metadata><?xpacket begin="﻿" id="W5M0MpCehiHzreSzNTczkc9d"?>
<x:xmpmeta xmlns:x="adobe:ns:meta/" x:xmptk="Adobe XMP Core 5.6-c142 79.160924, 2017/07/13-01:06:39        ">
   <rdf:RDF xmlns:rdf="http://www.w3.org/1999/02/22-rdf-syntax-ns#">
      <rdf:Description rdf:about=""/>
   </rdf:RDF>
</x:xmpmeta>
                                                                                                    
                                                                                                    
                                                                                                    
                                                                                                    
                                                                                                    
                                                                                                    
                                                                                                    
                                                                                                    
                                                                                                    
                                                                                                    
                                                                                                    
                                                                                                    
                                                                                                    
                                                                                                    
                                                                                                    
                                                                                                    
                                                                                                    
                                                                                                    
                                                                                                    
                                                                                                    
                           
<?xpacket end="w"?></metadata>
<defs>
    <style>
      .cls-1 {
        fill-rule: evenodd;
      }
    </style>
  </defs>
  <path id="subway" class="cls-1" d="M702.865,408.885a7.247,7.247,0,0,0-1.757-4.686,12.171,12.171,0,0,0-4.687-3.417,15.075,15.075,0,0,0-6.053-1.27H671.622a14.735,14.735,0,0,0-6,1.27,12.691,12.691,0,0,0-4.687,3.417,7.131,7.131,0,0,0-1.806,4.686v25a7.311,7.311,0,0,0,1.758,4.637,11.931,11.931,0,0,0,4.686,3.466,15.551,15.551,0,0,0,6.249,1.269l-6.151,4.882a0.711,0.711,0,0,0-.244.83,0.68,0.68,0,0,0,.732.537h29.681a0.682,0.682,0,0,0,.732-0.537,0.714,0.714,0,0,0-.244-0.83l-6.151-4.882a15.543,15.543,0,0,0,6.248-1.269,11.941,11.941,0,0,0,4.687-3.466,7.316,7.316,0,0,0,1.757-4.637v-25Zm-24.213,13.279a2.334,2.334,0,0,1-2.343,2.343H666.155a2.334,2.334,0,0,1-2.343-2.343V411.229a2.334,2.334,0,0,1,2.343-2.344h10.154a2.334,2.334,0,0,1,2.343,2.344v10.935Zm19.527,0a2.335,2.335,0,0,1-2.343,2.343H685.682a2.335,2.335,0,0,1-2.344-2.343V411.229a2.335,2.335,0,0,1,2.344-2.344h10.154a2.335,2.335,0,0,1,2.343,2.344v10.935Zm-4.687,5.467A4.667,4.667,0,1,1,690.173,429,4.521,4.521,0,0,1,693.492,427.631Zm-24.994,0a4.666,4.666,0,1,1-3.32,1.367A4.522,4.522,0,0,1,668.5,427.631Z" transform="translate(-631 -374.5)"/>
</svg>
