<svg xmlns="http://www.w3.org/2000/svg" width="100" height="100" viewBox="0 0 100 100">
  <metadata><?xpacket begin="﻿" id="W5M0MpCehiHzreSzNTczkc9d"?>
<x:xmpmeta xmlns:x="adobe:ns:meta/" x:xmptk="Adobe XMP Core 5.6-c142 79.160924, 2017/07/13-01:06:39        ">
   <rdf:RDF xmlns:rdf="http://www.w3.org/1999/02/22-rdf-syntax-ns#">
      <rdf:Description rdf:about=""/>
   </rdf:RDF>
</x:xmpmeta>
                                                                                                    
                                                                                                    
                                                                                                    
                                                                                                    
                                                                                                    
                                                                                                    
                                                                                                    
                                                                                                    
                                                                                                    
                                                                                                    
                                                                                                    
                                                                                                    
                                                                                                    
                                                                                                    
                                                                                                    
                                                                                                    
                                                                                                    
                                                                                                    
                                                                                                    
                                                                                                    
                           
<?xpacket end="w"?></metadata>
<defs>
    <style>
      .cls-1 {
        fill-rule: evenodd;
      }
    </style>
  </defs>
  <path id="taxi" class="cls-1" d="M601.107,423.14a5.662,5.662,0,0,1,3.515,2.1,6.148,6.148,0,0,1,1.366,3.954v4.687a6.239,6.239,0,0,1-.829,3.124,5.648,5.648,0,0,1-2.295,2.245v4a3.168,3.168,0,0,1-3.124,3.125h-3.124a3.169,3.169,0,0,1-3.125-3.125v-3.124H568.5v3.124a3.169,3.169,0,0,1-3.124,3.125h-3.125a3.169,3.169,0,0,1-3.124-3.125v-4A5.64,5.64,0,0,1,556.83,437a6.229,6.229,0,0,1-.83-3.124v-4.687a6.143,6.143,0,0,1,1.367-3.954,5.659,5.659,0,0,1,3.515-2.1l2.147-8.3a7.843,7.843,0,0,1,2.783-4.3,7.439,7.439,0,0,1,4.735-1.66h1.074v-3.124a3.168,3.168,0,0,1,3.125-3.124h12.5a3.166,3.166,0,0,1,3.124,3.124v3.124h1.074a7.439,7.439,0,0,1,4.735,1.66,7.838,7.838,0,0,1,2.783,4.3Zm-35.734,10.74a3.169,3.169,0,1,0-2.2-.928A3,3,0,0,0,565.373,433.88Zm2.05-10.935h27.142l-1.66-6.542a1.517,1.517,0,0,0-.585-0.879,1.478,1.478,0,0,0-.879-0.39H570.547a1.381,1.381,0,0,0-.927.39,1.628,1.628,0,0,0-.537.977Zm29.193,10.935a3.169,3.169,0,1,0-2.2-.928A3,3,0,0,0,596.616,433.88Z" transform="translate(-531 -374.5)"/>
</svg>
