<?xml version="1.0" encoding="UTF-8"?>
<svg width="134px" height="146px" viewBox="0 0 134 146" version="1.1" xmlns="http://www.w3.org/2000/svg" xmlns:xlink="http://www.w3.org/1999/xlink">
    <!-- Generator: Sketch 51.3 (57544) - http://www.bohemiancoding.com/sketch -->
    <title>blason-racing92-sans-blanc</title>
    <desc>Created with Sketch.</desc>
    <defs></defs>
    <g id="blason-racing92-sans-blanc" stroke="none" stroke-width="1" fill="none" fill-rule="evenodd" opacity="0.608147321">
        <g id="blason-racing92">
            <path d="M121.890534,97.4106293 C135.575409,67.7736359 133.020538,16.1746521 133.020538,16.1746521 C91.9816285,16.1746521 67.0016556,0.383297 67.0016556,0.383297 C67.0016556,0.383297 42.0189133,16.1746559 0.9789429,16.1746559 C0.9789429,16.1746559 -1.575407,67.7736358 12.1165734,97.4106331 C21.6681023,118.087814 39.3468933,135.628189 67.0016556,145.616699 C94.657486,135.628189 112.33519,118.087814 121.890534,97.4106293 Z" id="Shape" fill="#C9DFF5" fill-rule="nonzero"></path>
            <g id="Group" transform="translate(4.000000, 23.000000)" fill="#FFFFFF" fill-rule="nonzero">
                <polygon id="Rectangle-path" points="0.3008842 0.4875526 125.700817 0.4875526 125.200817 15.905673 0.8008842 15.905673"></polygon>
                <polygon id="Rectangle-path" points="1.8008842 31.0922165 124.200817 31.0922165 122.700817 46.5108862 4.3008842 46.5108862"></polygon>
                <polygon id="Shape" points="9.1071053 68.9770355 12.7304726 77.1179047 112.701004 77.1179047 119.201004 61.6997833 6.577282 61.6997833"></polygon>
                <polygon id="Shape" points="31.126358 100.363876 40.3580475 107.723404 85.6152954 107.723404 94.9979401 100.52298 103.117538 92.3020172 23.3385506 92.3020172"></polygon>
            </g>
            <path d="M5.2712059,20.0589142 C5.0794182,24.9071388 3.6660347,69.8516388 15.7419357,95.9813309 C25.3795509,116.83287 43.1188125,132.437332 67.0564956,141.126343 C90.9985122,132.437332 108.748657,116.83287 118.377014,95.9813309 C130.445297,69.8516388 129.031906,24.9071427 128.847733,20.0589142 C92.7796783,19.9564705 69.6364364,6.7951889 67.0564956,5.2521248 C64.478714,6.7951889 41.3370972,19.9564705 5.2712059,20.0589142 Z M67.0564957,142.079849 L66.9061127,142.02919 C42.6589432,133.260635 24.6853943,117.476898 14.9284401,96.3594741 C2.1295052,68.6474914 4.3721771,20.0779876 4.3934288,19.5924987 L4.4163094,19.1598853 L4.8385773,19.1598853 C42.9286576,19.1598853 66.5846253,4.5045775 66.8227387,4.3536452 L67.0564957,4.2016314 L67.294571,4.3536452 C67.5332566,4.5045775 91.1908341,19.1598853 129.27002,19.1598853 L129.696655,19.1598853 L129.717911,19.5924987 C129.742416,20.0779876 131.984009,68.6474914 119.185074,96.3594741 C109.430298,117.476898 91.4589158,133.260635 67.2117692,142.02919 L67.0564957,142.079849 Z" id="Shape" fill="#C9DFF5" fill-rule="nonzero"></path>
            <path d="M5.2995415,20.0846901 C5.1066551,24.9307327 3.6943703,69.8550873 15.764267,95.9727669 C25.3980751,116.81506 43.1291733,132.412426 67.0564957,141.097073 C90.9881745,132.412426 108.730133,116.81506 118.354141,95.9727669 C130.416962,69.8550835 129.004135,24.9307289 128.819962,20.0846901 C92.7677079,19.9822426 69.6348038,6.8274994 67.0564957,5.2860794 C64.4798126,6.8274994 41.3485413,19.9822426 5.2995415,20.0846901 Z M67.0564957,142.050049 L66.9061127,141.999924 C42.669838,133.235184 24.7044678,117.458542 14.95187,96.350357 C2.1583863,68.652008 4.3999634,20.1032104 4.4217644,19.6182708 L4.4440956,19.1861915 L4.8663788,19.1861915 C42.9395447,19.1861915 66.5846253,4.5379676 66.8227387,4.3870334 L67.0564957,4.2344722 L67.294571,4.3870334 C67.5332566,4.5379676 91.1793977,19.1861915 129.242218,19.1861915 L129.668854,19.1861915 L129.689575,19.6182708 C129.714615,20.1032142 131.955109,68.652008 119.161636,96.350357 C109.411209,117.458542 91.4480362,133.235184 67.2117692,141.999924 L67.0564957,142.050049 Z M5.2995415,20.0846901 C5.1066551,24.9307327 3.6943703,69.8550873 15.764267,95.9727669 C25.3980751,116.81506 43.1291733,132.412426 67.0564957,141.097073 C90.9881745,132.412426 108.730133,116.81506 118.354141,95.9727669 C130.416962,69.8550835 129.004135,24.9307289 128.819962,20.0846901 C92.7677079,19.9822426 69.6348038,6.8274994 67.0564957,5.2860794 C64.4798126,6.8274994 41.3485413,19.9822426 5.2995415,20.0846901 Z M67.0564957,142.050049 L66.9061127,141.999924 C42.669838,133.235184 24.7044678,117.458542 14.95187,96.350357 C2.1583863,68.652008 4.3999634,20.1032104 4.4217644,19.6182708 L4.4440956,19.1861915 L4.8663788,19.1861915 C42.9395447,19.1861915 66.5846253,4.5379676 66.8227387,4.3870334 L67.0564957,4.2344722 L67.294571,4.3870334 C67.5332566,4.5379676 91.1793977,19.1861915 129.242218,19.1861915 L129.668854,19.1861915 L129.689575,19.6182708 C129.714615,20.1032142 131.955109,68.652008 119.161636,96.350357 C109.411209,117.458542 91.4480362,133.235184 67.2117692,141.999924 L67.0564957,142.050049 Z" id="Shape" stroke="#C9DFF5" stroke-width="0.5"></path>
            <path d="M121.890534,97.4106293 C135.575409,67.7736359 133.020538,16.1746521 133.020538,16.1746521 C91.9816285,16.1746521 67.0016556,0.383297 67.0016556,0.383297 C67.0016556,0.383297 42.0189133,16.1746559 0.9789429,16.1746559 C0.9789429,16.1746559 -1.575407,67.7736358 12.1165734,97.4106331 C21.6681023,118.087814 39.3468933,135.628189 67.0016556,145.616699 C94.657486,135.628189 112.33519,118.087814 121.890534,97.4106293 Z" id="Shape" fill-opacity="0.23" fill="#0663A1" fill-rule="nonzero"></path>
        </g>
    </g>
</svg>