<?xml version="1.0" encoding="UTF-8"?>
<svg width="132px" height="143px" viewBox="0 0 132 143" version="1.1" xmlns="http://www.w3.org/2000/svg" xmlns:xlink="http://www.w3.org/1999/xlink">
    <!-- Generator: Sketch 51.3 (57544) - http://www.bohemiancoding.com/sketch -->
    <title>blason-racing92</title>
    <desc>Created with Sketch.</desc>
    <defs></defs>
    <g id="blason-racing92" stroke="none" stroke-width="1" fill="none" fill-rule="evenodd">
        <g id="Group" transform="translate(1.000000, 0.000000)" fill="#B0D4ED" fill-rule="nonzero">
            <path d="M116.256959,98.1179047 C106.020827,117.883798 88.3929971,132.728843 65.0564939,141.198102 C40.3893459,132.244307 22.109507,116.164322 12.1781999,94.6773636 C8.52810138,86.7793234 6.07397805,77.2131411 4.4332518,67.5108862 L125.680993,67.5108862 C124.805619,72.6903243 123.698632,77.8309839 122.301829,82.6997833 L8.577282,82.6997833 L11.1071053,89.9770355 L14.7304726,98.1179047 L116.256959,98.1179047 Z M2.4430852,52.0922165 C1.93915915,46.7118054 1.63435297,41.5541936 1.45717575,36.905673 L128.656384,36.905673 C128.478898,41.5541936 128.174004,46.7118054 127.670211,52.0922165 L2.4430852,52.0922165 Z M1.26260891,21.4875526 C1.29734328,18.9693331 1.35787376,17.2127586 1.38839038,16.4413254 C38.5533355,16.3357598 62.4001583,2.77340797 65.0564939,1.18332131 C67.7150545,2.77340797 91.5635519,16.3357598 128.730726,16.4413254 C128.760031,17.2127591 128.819537,18.9693336 128.853434,21.4875526 L1.26260891,21.4875526 Z M33.126358,121.363876 L42.3580475,128.723404 L87.6152954,128.723404 L96.9979401,121.52298 L105.117538,113.302017 L25.3385506,113.302017 L33.126358,121.363876 Z" id="Combined-Shape"></path>
            <path d="M1.78073761,16.7784038 C1.58432335,21.7435837 0.136844332,67.7722947 12.5040563,94.532322 C22.3741629,115.88687 40.5413545,131.867763 65.0564943,140.766382 C89.576072,131.867763 107.75441,115.88687 117.615035,94.532322 C129.974445,67.7722947 128.526958,21.7435877 128.338342,16.7784038 C91.4002058,16.6734888 67.6986718,3.19471326 65.0564943,1.61442531 C62.416528,3.19471326 38.7166583,16.6734888 1.78073761,16.7784038 Z M65.0564944,141.74289 L64.9024836,141.691009 C40.0703916,132.710927 21.6632609,116.546434 11.6709365,94.9195873 C-1.43675138,66.5390993 0.860021238,16.7979373 0.8817856,16.3007368 L0.905218156,15.8576873 L1.33767256,15.8576873 C40.3466124,15.8576873 64.5732409,0.848844681 64.8170984,0.694271391 L65.0564944,0.538590512 L65.3003128,0.694271391 C65.5447563,0.848844681 89.7730334,15.8576873 128.770816,15.8576873 L129.207743,15.8576873 L129.229511,16.3007368 C129.254608,16.7979373 131.550275,66.5390993 118.442587,94.9195873 C108.452494,116.546434 90.0475821,132.710927 65.2155136,141.691009 L65.0564944,141.74289 Z" id="Shape"></path>
        </g>
    </g>
</svg>