<svg preserveAspectRatio="none" width="1366" height="120" xmlns="http://www.w3.org/2000/svg" xmlns:xlink="http://www.w3.org/1999/xlink"><defs><linearGradient x1="0%" y1="50%" x2="100%" y2="50%" id="h"><stop stop-color="#0000B4" offset="0%"/><stop stop-color="#F0F" offset="99.4%"/></linearGradient><linearGradient x1="0%" y1="50%" x2="100%" y2="50%" id="i"><stop stop-color="#F0F" offset="50%"/><stop stop-color="#0000B4" offset="99.9%"/></linearGradient><linearGradient x1="0%" y1="50%" x2="100%" y2="50%" id="j"><stop stop-color="#F0F" offset="50%"/><stop stop-color="#0000B4" offset="99.4%"/><stop stop-color="#0000B4" offset="100%"/></linearGradient><linearGradient x1="0%" y1="50%" x2="100%" y2="50%" id="k"><stop stop-color="#0000B4" offset="50%"/><stop stop-color="#F0F" offset="100%"/></linearGradient><path id="a" d="M0 0h1365v128.571H0z"/><path d="M683.01 98C341.51 98 0 73 0 73V0h1366v73s-341.493 25-682.99 25z" id="d"/><path id="f" d="M0 0h1369v128H0z"/><filter x="-1.6%" y="-11.2%" width="103.2%" height="144.9%" filterUnits="objectBoundingBox" id="b"><feOffset dy="11" in="SourceAlpha" result="shadowOffsetOuter1"/><feGaussianBlur stdDeviation="5.5" in="shadowOffsetOuter1" result="shadowBlurOuter1"/><feColorMatrix values="0 0 0 0 0 0 0 0 0 0 0 0 0 0 0 0 0 0 0.327841938 0" in="shadowBlurOuter1" result="shadowMatrixOuter1"/><feMerge><feMergeNode in="shadowMatrixOuter1"/><feMergeNode in="SourceGraphic"/></feMerge></filter></defs><g fill="none" fill-rule="evenodd"><path d="M683.01 98C341.51 98 0 73 0 73V0h1366v73s-341.493 25-682.99 25z" fill-opacity=".9" fill="#1D0851" fill-rule="nonzero"/><g transform="translate(1)" opacity=".524"><mask id="c" fill="#fff"><use xlink:href="#a"/></mask><g filter="url(#b)" mask="url(#c)"><g transform="translate(-1)"><mask id="e" fill="#fff"><use xlink:href="#d"/></mask><g mask="url(#e)"><g transform="translate(-2 .571)"><mask id="g" fill="#fff"><use xlink:href="#f"/></mask><g mask="url(#g)"><g fill-rule="nonzero" transform="translate(-1027 -415)"><path fill="url(#h)" d="M1793.229 294H2396v1173.429h-602.771z"/><ellipse fill="url(#i)" cx="1027" cy="880.714" rx="1026.75" ry="880.071"/><ellipse fill="url(#j)" cx="1027" cy="880.714" rx="684.5" ry="586.714"/><ellipse fill="url(#k)" cx="1027" cy="880.715" rx="513.375" ry="440.036"/></g></g></g></g></g></g></g></g></svg>