<svg preserveAspectRatio="xMidYMid meet" width="100%" height="100%" viewBox="0 0 190 93" version="1.1" xmlns="http://www.w3.org/2000/svg" xmlns:xlink="http://www.w3.org/1999/xlink">
    <defs>
        <path d="M683.01,98 C341.51,98 0,73 0,73 L0,0 L1366,0 L1366,73 C1366,73 1024.507,98 683.01,98 Z" id="path-1"></path>
    </defs>
    <g id="Page-1" stroke="none" stroke-width="1" fill="none" fill-rule="evenodd">
        <g id="icon" transform="translate(-219.000000, 0.000000)">
            <mask id="mask-2" fill="white">
                <use xlink:href="#path-1"></use>
            </mask>
            <g id="path-1"></g>
            <path d="M306,62 L326,62 L326,82 L306,82 L306,62 Z M306,-14 L326,-14 L326,42 L306,42 L306,-14 Z M313.905,-61 C261.465,-61 219,-18.44 219,34 C219,86.44 261.465,129 313.905,129 C366.44,129 409,86.44 409,34 C409,-18.44 366.44,-61 313.905,-61 Z M315.5,112 C273.23375,112 239,77.76625 239,35.5 C239,-6.76625 273.23375,-41 315.5,-41 C357.76625,-41 392,-6.76625 392,35.5 C392,77.76625 357.76625,112 315.5,112 Z" id="Shape" fill="#FFFFFF" fill-rule="nonzero" opacity="0.523381696" mask="url(#mask-2)"></path>
        </g>
    </g>
</svg>