<svg width="156px" height="166px" viewBox="0 0 156 166" version="1.1" xmlns="http://www.w3.org/2000/svg" xmlns:xlink="http://www.w3.org/1999/xlink">
    <title>blason-racing92-ombre</title>
    <desc>Created with Sketch.</desc>
    <defs>
        <path d="M67.002,145.617 C94.657,135.628 112.335,118.087 121.891,97.411 C135.575,67.774 133.021,16.175 133.021,16.175 C91.981,16.175 67.001,0.383 67.001,0.383 C67.001,0.383 42.02,16.175 0.98,16.175 C0.98,16.175 -1.574,67.774 12.118,97.411 C21.669,118.088 39.348,135.628 67.003,145.617" id="path-1"></path>
        <filter x="-21.9%" y="-13.8%" width="139.3%" height="135.8%" filterUnits="objectBoundingBox" id="filter-2">
            <feMorphology radius="2.5" operator="erode" in="SourceAlpha" result="shadowSpreadOuter1"></feMorphology>
            <feOffset dx="-3" dy="6" in="shadowSpreadOuter1" result="shadowOffsetOuter1"></feOffset>
            <feGaussianBlur stdDeviation="8.5" in="shadowOffsetOuter1" result="shadowBlurOuter1"></feGaussianBlur>
            <feColorMatrix values="0 0 0 0 0   0 0 0 0 0   0 0 0 0 0  0 0 0 0.413071784 0" type="matrix" in="shadowBlurOuter1"></feColorMatrix>
        </filter>
    </defs>
    <g id="Page-1" stroke="none" stroke-width="1" fill="none" fill-rule="evenodd">
        <g id="SVG-Layer" transform="translate(14.071882, 4.035941)">
            <g id="Blason_Racing92">
                <g id="blason-racing92-ombre">
                    <g id="Shape" fill-rule="nonzero">
                        <use fill="black" fill-opacity="1" filter="url(#filter-2)" xlink:href="#path-1"></use>
                        <use fill="#C9DFF5" xlink:href="#path-1"></use>
                    </g>
                    <path d="M4.301,23.488 L129.701,23.488 L129.701,38.906 L4.301,38.906 L4.301,23.488 Z M6.051,54.092 L127.951,54.092 L126.214538,69.511 L7.74499538,69.511 L6.051,54.092 Z M13.107,91.977 L16.73,100.117 L117.201,100.117 L123.201,84.7 L10.577,84.7 L13.107,91.977 Z M35.126,123.364 L44.358,130.724 L89.615,130.724 L98.998,123.523 L107.118,115.302 L27.338,115.302 L35.126,123.364 Z" id="Shape" fill="#FFFFFF" fill-rule="nonzero"></path>
                    <path d="M5.271,20.059 C5.079,24.907 3.666,69.852 15.741,95.981 C25.38,116.833 43.119,132.437 67.056,141.126 C90.999,132.437 108.749,116.833 118.377,95.981 C130.445,69.851 129.032,24.907 128.847,20.059 C92.78,19.956 69.637,6.795 67.057,5.252 C64.479,6.795 41.337,19.956 5.271,20.059 Z M67.056,142.079 L66.906,142.029 C42.659,133.261 24.686,117.477 14.928,96.359 C2.13,68.647 4.372,20.078 4.393,19.592 L4.416,19.16 L4.839,19.16 C42.929,19.16 66.585,4.505 66.823,4.354 L67.056,4.202 L67.295,4.354 C67.533,4.504 91.191,19.16 129.27,19.16 L129.697,19.16 L129.717,19.592 C129.742,20.078 131.984,68.647 119.185,96.359 C109.43,117.477 91.459,133.261 67.212,142.029 L67.056,142.079 Z" id="Shape" fill="#FFFFFF" fill-rule="nonzero"></path>
                    <path d="M5.3,20.085 C5.107,24.931 3.694,69.855 15.764,95.973 C25.398,116.815 43.129,132.413 67.056,141.097 C90.988,132.412 108.73,116.815 118.354,95.973 C130.417,69.855 129.004,24.931 128.82,20.085 C92.768,19.982 69.635,6.827 67.056,5.286 C64.48,6.827 41.35,19.982 5.3,20.085 Z M67.056,142.05 L66.906,142 C42.67,133.235 24.704,117.459 14.952,96.35 C2.158,68.652 4.4,20.103 4.422,19.618 L4.444,19.186 L4.866,19.186 C42.94,19.186 66.585,4.538 66.823,4.387 L67.056,4.234 L67.295,4.387 C67.533,4.538 91.179,19.187 129.242,19.187 L129.669,19.187 L129.689,19.618 C129.715,20.103 131.955,68.652 119.162,96.35 C109.412,117.459 91.448,133.235 67.212,142 L67.056,142.05 Z M5.3,20.085 C5.107,24.931 3.694,69.855 15.764,95.973 C25.398,116.815 43.129,132.413 67.056,141.097 C90.988,132.412 108.73,116.815 118.354,95.973 C130.417,69.855 129.004,24.931 128.82,20.085 C92.768,19.982 69.635,6.827 67.056,5.286 C64.48,6.827 41.35,19.982 5.3,20.085 Z M67.056,142.05 L66.906,142 C42.67,133.235 24.704,117.459 14.952,96.35 C2.158,68.652 4.4,20.103 4.422,19.618 L4.444,19.186 L4.866,19.186 C42.94,19.186 66.585,4.538 66.823,4.387 L67.056,4.234 L67.295,4.387 C67.533,4.538 91.179,19.187 129.242,19.187 L129.669,19.187 L129.689,19.618 C129.715,20.103 131.955,68.652 119.162,96.35 C109.412,117.459 91.448,133.235 67.212,142 L67.056,142.05 Z" id="Shape" stroke="#FFFFFF" stroke-width="0.5"></path>
                </g>
            </g>
        </g>
    </g>
</svg>